<mxfile host="Electron" modified="2024-04-26T15:01:16.134Z" agent="Mozilla/5.0 (Windows NT 10.0; Win64; x64) AppleWebKit/537.36 (KHTML, like Gecko) draw.io/22.0.3 Chrome/114.0.5735.289 Electron/25.8.4 Safari/537.36" etag="MiflU6RW0W9kziqEeZ9v" version="22.0.3" type="device">
  <diagram id="C5RBs43oDa-KdzZeNtuy" name="Page-1">
    <mxGraphModel dx="1298" dy="1984" grid="1" gridSize="10" guides="1" tooltips="1" connect="1" arrows="1" fold="1" page="1" pageScale="1" pageWidth="827" pageHeight="1169" math="0" shadow="0">
      <root>
        <mxCell id="WIyWlLk6GJQsqaUBKTNV-0" />
        <mxCell id="WIyWlLk6GJQsqaUBKTNV-1" parent="WIyWlLk6GJQsqaUBKTNV-0" />
        <mxCell id="vp01Dy_aqY1F1hco7SnQ-4" value="User" style="swimlane;fontStyle=0;childLayout=stackLayout;horizontal=1;startSize=26;fillColor=none;horizontalStack=0;resizeParent=1;resizeParentMax=0;resizeLast=0;collapsible=1;marginBottom=0;whiteSpace=wrap;html=1;fontSize=16;" parent="WIyWlLk6GJQsqaUBKTNV-1" vertex="1">
          <mxGeometry x="470" y="-60" width="160" height="190" as="geometry" />
        </mxCell>
        <mxCell id="vp01Dy_aqY1F1hco7SnQ-5" value="+ id: String&lt;br&gt;+ nom : String&lt;br&gt;+ prenom : String&lt;br&gt;+ password : String&amp;nbsp;&lt;br&gt;+ email : String&amp;nbsp;&lt;br&gt;+ numero : String&lt;br&gt;+ age : int&lt;br&gt;+ CIN : String" style="text;strokeColor=none;fillColor=none;align=left;verticalAlign=top;spacingLeft=4;spacingRight=4;overflow=hidden;rotatable=0;points=[[0,0.5],[1,0.5]];portConstraint=eastwest;whiteSpace=wrap;html=1;fontSize=16;" parent="vp01Dy_aqY1F1hco7SnQ-4" vertex="1">
          <mxGeometry y="26" width="160" height="164" as="geometry" />
        </mxCell>
        <mxCell id="vp01Dy_aqY1F1hco7SnQ-9" value="Vote" style="swimlane;fontStyle=0;childLayout=stackLayout;horizontal=1;startSize=26;fillColor=none;horizontalStack=0;resizeParent=1;resizeParentMax=0;resizeLast=0;collapsible=1;marginBottom=0;whiteSpace=wrap;html=1;fontSize=16;" parent="WIyWlLk6GJQsqaUBKTNV-1" vertex="1">
          <mxGeometry x="45.00000000000003" y="10" width="160" height="80" as="geometry" />
        </mxCell>
        <mxCell id="vp01Dy_aqY1F1hco7SnQ-10" value="+ id: String&lt;br&gt;+ dateVote: Date" style="text;strokeColor=none;fillColor=none;align=left;verticalAlign=top;spacingLeft=4;spacingRight=4;overflow=hidden;rotatable=0;points=[[0,0.5],[1,0.5]];portConstraint=eastwest;whiteSpace=wrap;html=1;fontSize=16;" parent="vp01Dy_aqY1F1hco7SnQ-9" vertex="1">
          <mxGeometry y="26" width="160" height="54" as="geometry" />
        </mxCell>
        <mxCell id="vp01Dy_aqY1F1hco7SnQ-17" value="Programme" style="swimlane;fontStyle=0;childLayout=stackLayout;horizontal=1;startSize=26;fillColor=none;horizontalStack=0;resizeParent=1;resizeParentMax=0;resizeLast=0;collapsible=1;marginBottom=0;whiteSpace=wrap;html=1;fontSize=16;" parent="WIyWlLk6GJQsqaUBKTNV-1" vertex="1">
          <mxGeometry x="12.370000000000005" y="390" width="160" height="100" as="geometry" />
        </mxCell>
        <mxCell id="vp01Dy_aqY1F1hco7SnQ-18" value="+ id: String&lt;br&gt;+ title :String&lt;br&gt;+ desc : String" style="text;strokeColor=none;fillColor=none;align=left;verticalAlign=top;spacingLeft=4;spacingRight=4;overflow=hidden;rotatable=0;points=[[0,0.5],[1,0.5]];portConstraint=eastwest;whiteSpace=wrap;html=1;fontSize=16;" parent="vp01Dy_aqY1F1hco7SnQ-17" vertex="1">
          <mxGeometry y="26" width="160" height="74" as="geometry" />
        </mxCell>
        <mxCell id="vp01Dy_aqY1F1hco7SnQ-25" value="Room" style="swimlane;fontStyle=0;childLayout=stackLayout;horizontal=1;startSize=26;fillColor=none;horizontalStack=0;resizeParent=1;resizeParentMax=0;resizeLast=0;collapsible=1;marginBottom=0;whiteSpace=wrap;html=1;fontSize=16;" parent="WIyWlLk6GJQsqaUBKTNV-1" vertex="1">
          <mxGeometry x="470" y="356" width="160" height="200" as="geometry" />
        </mxCell>
        <mxCell id="vp01Dy_aqY1F1hco7SnQ-26" value="+ id: String&lt;br&gt;+ title : String&lt;br&gt;+ dateCreation: Date&lt;br&gt;+ dateDebut : Date&lt;br&gt;+ dateFin : Date&lt;br&gt;+ code : String" style="text;strokeColor=none;fillColor=none;align=left;verticalAlign=top;spacingLeft=4;spacingRight=4;overflow=hidden;rotatable=0;points=[[0,0.5],[1,0.5]];portConstraint=eastwest;whiteSpace=wrap;html=1;fontSize=16;" parent="vp01Dy_aqY1F1hco7SnQ-25" vertex="1">
          <mxGeometry y="26" width="160" height="174" as="geometry" />
        </mxCell>
        <mxCell id="vp01Dy_aqY1F1hco7SnQ-29" value="" style="shape=stencil(lVrLchw3DPyavbJIguDj7Dj/4SrL0VYUySXLSfz3BrPh7LC502vd5HVzBm80wDnJh2+Pn74+nKL/9vb68ufDP+fPb48n+e0U4/n58eH1/GZ/neTjST58eXl9+OP15fvz58u/v37qyP7XXy9/9yf8eznXoqutn4r+x+WX5Lz+98PvF/zT+XmHr+qyTHhxko7xRVxKEz46JfgcnM7yBNfKMV5N3AD4nI/xSV0UwMd6jJfstE54T+WJzYUE+ELkMfOpAj6T54fmtCCe2DNkVz3iib5BXWiA/z9AbuPF1dk+0YVA8SlD/Gik+DDLr9T+Iboyx0Oj/jV8nJ9vbxSSACEMe28HimvMQn6xkOlEVG6uAb66SiRqzkNGJleJiarzs8YpUHmya7PHUqEuVpRfo2tEfnV+jmitLglJYYzQLK4QB1iAzfpmsxjRd5N24K2GNc/wabZ/qU5YyKF9aqQl1AJulsdqcGEphhW3VqekBAUncc4YiweWYi7O8rQtpw/w4K+mTqj8UEFbdoXaJ4A8heaL6Tv7q3H7RLSn4RuJT3UKz7cSxPT1LulygAWQZWTAA4FobCmTF5WZicQ8WvGAsLYqi9MKdZqKiw0PBJJl2Qo76JAHVbjNPPzyhkzjuuQlMNRV4ui6UYHdAWXkKbkU8YCwN+Thpt2BSMzaU33RgSnd/JLNVo+Jp3txgNBIlNHZgQTRKpTitI3BbQcitVI/MHu6tpEhhyLNbzBDJ5JxZiXogXWr4kcHdPZ0UdoU+oHZDzm7zFiCxzalmZYxUxoSKGXKdMzq0HiMDAfmaevDwFwsfpkfdBCJjUtZmSE5bRmM5IvT8baQHR1KHeHLjI/cC9YKZj+HwSdv4601IZ4GXl7ptWfPN2pQ3iN/wnHL6jKz50aOr/jGnh8HtbyOl8rk94NqXf3F9O31DvFK7Gn4GAGf2fPLkmU0yQwP44e6xLh4wXqtlAsaPiE+MH0Ldhwd8/KhPDAcUKJg+FwAX0g8GH5ZN7D4NH8FGD7G/HuEBy51Fw/+2qjSEb4J6svwNmqgvnQ2a6iv+YvFw7JuUFp/6jIsKuV1pm/F57N61fOxAZ7mS8Xh404+1mGO3fN5fkFLUlp/evwjnrXtnl/oL8rPbuUjlz9hfjFm0/MR85etn3o+LvHP8r3isJ7u1dv34duybKD1rbPRWX6h+Wj9KFbAs9msj7ZzPEcab9ZPoR4G3h8V7W/TKeuPeZSPX1svdr6B60hh8jfkP57uYoL3SLCMADGB2sIRxxuP8LgdcoURuIIsNwS60DaLxoWDsnWGuRgpmTmFHRDkZJ1Hs6COOPV1ps68FrHLaKZp1meBWel708ZyoM8zfHiArU+fmHhmFlhz5bF4OTKrh5nsztS37iginzYEm6X9UplIcdmzKA++cGO+p/OJv7GjoA2h4n1BLzms42ScaPoBVrK38X8vEnuDJSRsEPIIlqPFTFpWP4xVFz/8ujtQSXjnOBY9u20U6+Mqy1Kj0EKcZJTF/UaNba0FmVS7s7ZOy81HG8PF4Rpx2TvSxalHP+zK/8EqFKO10auApcp0FYiRPE5zfa9JsmFpVtf+eIQHC2VKLzyykb7fI/bxyPY73yD28SMo96t6ihcokZXu6jwWi37dSxJtmdb7VQbRN+D2oF+V0NU+sJ0iNEIjsutcaSkS9Ffm9FHGTd/WZyttzGnZZkRaSxWpRSq0fywXAYmTnYLTa78qZN1joTqVXrW1UQM3vNBlslUUBfJlIrKACJiR/bqWXa6EZSE+PgA4wlccYFl/7ffHOIAklgFx2WCOC/rbeBnz847wky4QErp4q5FHTQD4uKcLh/79wYJnl6NyA8+6WFu/P2CXzbJshP3YKNzOyO3u8YpnC5/+fQl+j8L0zWF8XvFrA11Z/BvoMGEFGRbIkRNGQfn59zqGh+9jhC6ImmCL2ZjR4UC94PnCGdil8NumhTYJH2wEFyZCL9fbEs/844MmeBEktAN0+6D9GWPq9p+fn/gFgeD1XaL53uMnIZ7Fwzu/J7uPtz+uH699OT89Xb592/8/fuxmP10+lJOPPwE=);lineShape=1;fontSize=16;" parent="WIyWlLk6GJQsqaUBKTNV-1" vertex="1">
          <mxGeometry x="125.01502032115263" y="706.1277093591602" width="243.37432928950327" height="411.6014246330152" as="geometry" />
        </mxCell>
        <mxCell id="vp01Dy_aqY1F1hco7SnQ-30" value="" style="shape=stencil(fZbdcgIhDIWfZm8zQAg/17Z9j85U606tdqz9e/tmZ0c0uJ47xP0I5JwEBl59bp8/1kNwn6fj4W39M76ctgM/DCGM++36OJ50NPDjwKvN4bh+PR6+9i/z74/n6ctp9H74nlb4nbmSKZeJCu5vngmZ6jzzNAO7cX8FVKEsBuBKrgKg9oAE8gkCbLeUhEoEQKSUDZDLeWYRKIl8MEDRmHwfyBrBG6Amyu4+kDxxMoB3jhwgYu7TVAsVkFcWCs4CTBEoF4RctKeOxHIf8IXYpikHikAIf+MNUW94AGSSaoAoFIE3AlOyeWU+p2E5S9yfQZcQILVuQOwZdJNoS9Ls3wA5u2XZTIHECqeJ9kDpSaauRiNVcAY1QhdBzeLBli5WazpkSsBLV25uRaqWRyFawTQzRRIQYirJzq5atkBqLfouwqUxLBepthWb10vrWZY6UOAeyKCCtDV625mm9gmUC4Wc3VLJMMIE1BsA2FW9JraVlQB7n3c9oMKhCLEvIM1zBPZ25/umNQ1tVEC2G+fFCC8g398O2hNQuQlVu752DBfA+q0ptnqO5JFmeuIuo9DY7KjY71UxdJV4EntifPWorW++R/dC4t7V3DlIB5cHx2bc7eb3yvX//QNFp+bHDT/+Aw==);lineShape=1;fontSize=16;" parent="WIyWlLk6GJQsqaUBKTNV-1" vertex="1">
          <mxGeometry x="335.0212961581983" y="725.248705850405" width="4.918462918016016" height="4.910774964586572" as="geometry" />
        </mxCell>
        <mxCell id="vp01Dy_aqY1F1hco7SnQ-31" value="" style="shape=stencil(lVbLbhsxDPyavRKiKEriOU3/I0CcelHXDhz39ffldqskpL1Ec5PXMxKlGT4munvZPzzvppxeLufT193P+fGyn+jTlPN83O/O80VXE91PdPd0Ou++nE/fj4/r7+eHBbmsvp1+LDv8WnlSodDCyun3vy8Crf/98nklHObjO0Iv0JshdAHmbULtgMkQWgVq2wSuwNUQagOhbUIpgGIILJCDkChDY0MoAiVvE7BBLoZAGqQEBGjZ4DMBBgckEBuQ7pCCK6fxggOPHVKK8MnujwWohHgbPyYoIT5bBSo0jODdbk/AwW3RGwKHHDfh2VtabxM4moDYwTGwZ4GMLhgOXr6A+KtKEDsPH74mC+TANwzV+hIx9AEDO99oOgc+5qvLdijBWxaoNtf1dUoQD0G3+y9qBE7IIA5fQm0zpKv9ORAXAbuPvweVJAG795dR7TbwaK2JqmCYKMm+p+rbwjxEq28bD7YBr9ZtJfQy+izH0DzZXzaF2hKk4uCRlWn0hDd41CQ+CFefu56iSkXOJxrCvFqnh9Ys7LWlFuYKN18bdIsaEKr4qs8UntDZt6GqJwQKSwO2+dLKsNRtQodsS3njUdy3CN2d0IYytwkCZIVrEl56mXdsSF2rRhSSgDgCjzJz20vpKo17D8uEHtHtEYIjmbYIrkVK3GeUgLYy6iRIQaVTIdgNiqplFFLzg6KeWYLaqwR0bT7FJeDDw+t/EHTxNis/zYfDOmq//9/P1vppncvp/g8=);lineShape=1;fontSize=16;" parent="WIyWlLk6GJQsqaUBKTNV-1" vertex="1">
          <mxGeometry x="269.0189872560352" y="763.8958340952629" width="54.048368155186644" height="12.660814524435027" as="geometry" />
        </mxCell>
        <mxCell id="vp01Dy_aqY1F1hco7SnQ-32" value="" style="shape=stencil(lVfLctswDPwaXTEkQfBxTtP/yEycWlPXzjhum/x9oapURUjeaW96YEkCWCzAgR/ejk+vhyG4t9v18vXwc3y+HQf+NIQwno+H63jTp4EfB354uVwPX66X7+fn+f31abKcnr5dfkwrvM847xw5N8GC+5g/ZXL194fPM+A0nleAWin6zt5HCgUAMk3/VoAQyTsAiOSkAzBTTPcBRUhKB4hCFeyQhWK/Q3IUgdOpUu6DlAoJAwBT7p3OiSI4kmRKqQMUpurvA5hCf6KaiIG9I+nXr7p+RvZ/WLDYe4rAY0+ld7gUuP4mZyVREbC+o2oCJJB3PlM0J4rQA6VlyBbAgBXsKFd7JA+IypoiZ51OIEjRUWAb1Qx2iKEdYJU2D3yImjeTZ6UuiBLXVosr4nlEVGnVvgAKOeB0qBTMkWpL5T4gUOozvVK1fW4IFW+3QHGtJGJ9QFGKJGZ9VVUQJE/B2EfKgNwb0a4BF0PbfeGR+ouIR97UTiZBmk3O2AuMjybAm9KJLYn7OfZUNwCkd6FYyVZAATtwtCzS4kR9SivBb4oTJXkCbDQSskJFvqedNgUfgdOLpi9tJzTJuVdrqSdGiq0R3YuS0QtJLTP7TBIrYSo5FeRBuPWBpf07KoBLUuxEooLgwQ5JayX2esEkoBq0m6feB9zMNYZsBpLWKfbtlWjGZZg1HT5Msw2QR0oCwyMHc6azigmQg7VWnJVHLL9aiZWtPVAvFStvzyNgVlAxrGZGbQnZt0924gxwulPxZ5svNKvVzfioAyjg238P5f8A0Ie/d4CX8XSarxDr//bOoJ/m+wY//gI=);lineShape=1;fontSize=16;" parent="WIyWlLk6GJQsqaUBKTNV-1" vertex="1">
          <mxGeometry x="284.6692195615144" y="740.9889970534555" width="12.733578597207462" height="34.29602425367217" as="geometry" />
        </mxCell>
        <mxCell id="vp01Dy_aqY1F1hco7SnQ-33" value="" style="shape=stencil(rVfLctswDPwaXTEkwAd4TtP/yEyc2lM3zjhOH39fqB7KJhytL73JMpYEFouHJnl43z69bSYO76fj4fvm1+75tJ3ky8S8e91ujruTPU3yOMnDy+G4+XY8fLw+n3+/Pc2W89OPw8/5hN9nXFPiOqM4/Dm/iYFK+Pfm6xmw371eA5gij4BCpawDNJGEAcCZcl0H1EIiA0Aysa4DSu3ndUBK1HgdkBtpHgBZSBMAGCdxABShCGJIQtwGQGWqeR0ghXi8oUVIqyQqOgISZQSIlMbEtUoBuMSF6kiriUUbAMSbGIxowFLMJOwBDYmPKnuPGrggU4g+ZJS2hfIrTmtctw8Ukk+aCrJ3paAK7ZnSWAlaKAB7E5E7X6gC+2gZGwlVK28gIqv1NjKkJiukCSZlD6gIoBTVx4BiFu4OLABLO0jy3E0coMIsW226tLWAa9N0Pd7QhApoSBaDL+bSnVxjKTnlKQkImsW3bSu1Aqo/1t5zL4PB5A6K08SUb64Q1LcpjV3YqlMBrdwH02JvgwSQFDoji72JEVezq57Wxftf7LPvLjYTMpg6RmgbAyipZ3GtAYcxZzn1wfU5oHmKks0EQKmoz7FUuC7YeTq6NEsX6C6XPsUW3d1RUelJXdIMVVGlk76EQAXZZx8yw22kWgMb/YmwpVo/jKM/AcZr+1Qqzh6VpS5FdWUP+mn7xJ8E/GnpZiEkAZqzzlbE8QnPN8mNfApc7i59bSkCyqjRhZs6rjDBdkF2U5kaENC8YjtF31mx7+/k9nDZ6F92+/35g+D6f/8FYK/OXw/y+Bc=);lineShape=1;fontSize=16;" parent="WIyWlLk6GJQsqaUBKTNV-1" vertex="1">
          <mxGeometry x="277.2498389430268" y="761.1741038805142" width="16.672827318984915" height="32.730422816909694" as="geometry" />
        </mxCell>
        <mxCell id="vp01Dy_aqY1F1hco7SnQ-34" value="" style="shape=stencil(fZbdcgIhDIWfZm8zQAg/17Z9j85U606tdqz9e/tmZ0c0uJ47xP0I5JwEBl59bp8/1kNwn6fj4W39M76ctgM/DCGM++36OJ50NPDjwKvN4bh+PR6+9i/z74/n6ctp9H74nlb4nbmSKZeJCu5vngmZ6jzzNAO7cX8FVKEsBuBKrgKg9oAE8gkCbLeUhEoEQKSUDZDLeWYRKIl8MEDRmHwfyBrBG6Amyu4+kDxxMoB3jhwgYu7TVAsVkFcWCs4CTBEoF4RctKeOxHIf8IXYpikHikAIf+MNUW94AGSSaoAoFIE3AlOyeWU+p2E5S9yfQZcQILVuQOwZdJNoS9Ls3wA5u2XZTIHECqeJ9kDpSaauRiNVcAY1QhdBzeLBli5WazpkSsBLV25uRaqWRyFawTQzRRIQYirJzq5atkBqLfouwqUxLBepthWb10vrWZY6UOAeyKCCtDV625mm9gmUC4Wc3VLJMMIE1BsA2FW9JraVlQB7n3c9oMKhCLEvIM1zBPZ25/umNQ1tVEC2G+fFCC8g398O2hNQuQlVu752DBfA+q0ptnqO5JFmeuIuo9DY7KjY71UxdJV4EntifPWorW++R/dC4t7V3DlIB5cHx2bc7eb3yvX//QNFp+bHDT/+Aw==);lineShape=1;fontSize=16;" parent="WIyWlLk6GJQsqaUBKTNV-1" vertex="1">
          <mxGeometry x="277.9045969394483" y="790.2738266357667" width="4.918462918016016" height="4.910774964586572" as="geometry" />
        </mxCell>
        <mxCell id="vp01Dy_aqY1F1hco7SnQ-35" value="" style="shape=stencil(lVfLctswDPwaXTEkQILkOU3/IzNxak/dOOM4ffx9oapqRNDeTm6yhCWBBbCAJ7l73T+87CYOr5fz6evux+Hxsp/k08R8eN7vzoeLPU1yP8nd0+m8+3I+vT0/Lr9fHmbL+enb6ft8ws8F1xrlOKM4/FreMNX258Xnxf54eN7YV6ZQOvso1PQ2QIVy7QASSdNtQGrUuAOkQgpcSkzcu5QLZb4NEKYmHUAbBQBgi6F1AKNBQdCxkvasNibJAFAoph5QKVYAUErFA2oAgETNARoJyEPk9bwNoCBAWD3eAP7eeRVQKA0XNBBzWq/fOgQKgykN/iSQ5kBVB0rB+YFC9vYM/Dd++rJrBXZCpNC8fRAUb3X8KGVgn4d8KUUQb1nZ2Ngjf6wgVAcAuMCkhKMHwBrNK+EbQAElZ22j2XMqKAZrzOIBSO/shuJYMjFAjZkpO5cabv1BUQ2gKAYrpLExIxD5lZJ/Gh+s1kEM2eujXVBBCDKQamMIkUrC3j7ATmP2OUi4k50SWa0Duf6oPQ/KFdchd6PTtOdnHruocXSYaBWWNauPIOuqftczJiR9DSW7E4Rsn0tf1hKogJh1kCObQBkkuUaqvVpESkAsjMPaV0WA46YmLy4B+2Pq6c9noEW1erUL62511b4FStnbg6a0laMM54OMteTnh/kPamiWWvH8AFWZp2Px/CP/bT/px0eEO9QsatnZo5LeiNr77isgwR/dlf9vbw/vi/nT4Xhc9vrtd7/I26vlT4Dc/wY=);lineShape=1;fontSize=16;" parent="WIyWlLk6GJQsqaUBKTNV-1" vertex="1">
          <mxGeometry x="167.37237209790214" y="831.3543944899536" width="16.808444414067182" height="72.7911935101503" as="geometry" />
        </mxCell>
        <mxCell id="vp01Dy_aqY1F1hco7SnQ-36" value="" style="shape=stencil(lVjbbtswDP2avBKUKFHSc9f9R4GmS7AsKdLs9vejF8it6PgEfXMcHfFyePVGHt52T6/bTeS3y/n0fft7/3zZbeTLJsb9cbc97y/2tJHHjTy8nM7bb+fTz+Pz9ffr03Ryevpx+jXd8OeKS0qSJ1Tkv9c3gXL9/+Lr9fxhf/xwPkdqMpzPJOC8BtIy3h9JAwAoBadQo8oAUKnwAIhKqgDQiNsAEKGAJGTvIzGVInBSoTRKSJlCWQcYC22UkEzJvA6QRHEEGDEM3BojpTgCEjEwOiiVkehUqQpQiSmqByAJSXxomNGxAbc2ysUbrYCHknqozYBKCiRU7qHWAYol1EzNAbS/uQlo7IkrgQREaxMvoShFkHFNO00dYFZBlSyBRreaVRVICMyd2I5oqSfhbREL5kxLAcFkOvHoplZgyrVM6lRqMCGaJUT1gAKIqPN9c2F698NacGRdiAA61aVOlRoCMIXg3YSIKBb/1RMRQEYYQJwNiXICgEbBAaxlAEANxGNlataCQGxUoeIA3P12G1B8uBqXd5I0LwCo9lmS1uJVEiTBqmvyRkfgJQuEGr1bM2gpFmp17EFGXAAtZQI4lTJsvKaSq98WfIIkqHfrdAUCyKJstJ5Sa8SFRVI3FBq6yAdzA6oCQil5QETRumgpZnTACcROgsKqMaXogjg0z3weoMSupQjM6cI+p4vFEmDa2mwcebCxDhGXjQfXeFPnfm3aCGM+2GjKaJ6JPjSm+QMYbZOzjCplHN7VT7o2NxZQixdd10a4BCyIVEYDbMzMoIeG7NuPOQ1VAJv9daQ5GY9AglicOQDfYy27Wb3AdLOZ002hxiNyapo5mteHQg0BtAfmDAiwOaRE4lYgm+CAW6V64gLDjcZMTOMYoNBmCT7bct/q1kZ7dbsANdB77Lzbf6xcIP2519zZpfh88LtJ7DXz9nnxJRU3W9uu3ITBcGeVRRdhOFQtCcaDpCWJW7oZboeWhc3fjxqzRWj191e8rn7qo8H98/bw/oXiZX84XD9wfPzff9GwV9evIfL4Dw==);lineShape=1;fontSize=16;" parent="WIyWlLk6GJQsqaUBKTNV-1" vertex="1">
          <mxGeometry x="172.2336621321199" y="827.9540592333608" width="26.352180905300646" height="55.95712486641213" as="geometry" />
        </mxCell>
        <mxCell id="vp01Dy_aqY1F1hco7SnQ-37" value="" style="shape=stencil(7VjLctswDPwaXTEEQRLkOU3/IzNxGk/TOOOkr78vVJeKCVmbya2H3GwJS4LALgBqkqvn+5un3RTD88vx8HX3c3/7cj/JpynG/eP97rh/sV+TXE9ydXc47r4cD98fb0//n25my/nXt8OPeYVfJ1yglmdQDL9PD5Sp1b9PPp/sH/aPZ/acScIAyI2CbgMiUyojgEkQQInbAEhCrWwDRCimASCFOABApTQeOtqTtg0wB5KOAIaAnKjGAdCoAI9K80GyLIAYaaSszh6tr5naGKJAiuwbqbdnkIIqpNnZB7B+1fX6UbbtG/sEBKoZ2CdScfGpDOyVxFGIAjhva8Tj+oky8J/DEo8OMIpGuEHjUZekyKHa4/FKuH8numxfqI3+sDECMM4iyuMGjClqIeU6AhpFoJkWvQYsRg3EqC6vl6RlioilTGHMsgkbRdVkw2MWcoS81uBLkVXHAsppKaRjlGZpo0pRqIwumfYCkMK8g2NG7MXgMiCvapeFFYiniKeG5R6pee4YY5Rm+oJDZ/FsNX2gxKVK0ZEv4IqUYl/wbAuUCFFq4g8hIEySOv0XQKEMMiexh30BJEpAEMIrl2KvU1ud00muNig5a6xlzFytFAAgce8bC2BZ4jLAYjKyr2bokimSdQVA7NPVDuYSqGTFNM+rQwP2mYL8oRucYGZRrzTKuGyIy3TqHfIywMjnRF3wRBIorzSKOkrOVBy9TUBADzn4xL2p0dT1cl4GgE9iY9VKo6jLWQNxc0BbptEtjarTaIaTkmnUV9dIFe3wbkDsxXdhX4TV1apAHumqy8y+FSXHb6OXIJdsvHZtsVAC3JgH7jGsVtEF1Ep7XceCn6wVg0zbhO5a+xxoBLCmNYbVZsSM+qj4PLBJDhSmoqtO3cvCxyVg+rgETP/FJcBdU/ElYJ5Nx6bAuDxa5alOZRnGyDqhU9lrwdxqbK7tWJdAMrDh0zWRpFBnNsI4XluxQVEyB1w3t5GjAWYbD9p4Bi0w00Y0N3uqTUGgYhv13SipFc5tpi03JOnSfC+rwbgcPaABeXJa9bUA9TmTufgdUInXPvCf2aOoJj+1WYwyoF7s373OkpDA+ua/S1rp3N2wd+VFU79dbtk7/4UEBPS93wrftrcfrx8m7/YPD6fvmufv/YdMe3T6CCrXfwA=);lineShape=1;fontSize=16;" parent="WIyWlLk6GJQsqaUBKTNV-1" vertex="1">
          <mxGeometry x="204.1461682752713" y="840.4001701750515" width="15.151694180538136" height="37.3246598028661" as="geometry" />
        </mxCell>
        <mxCell id="vp01Dy_aqY1F1hco7SnQ-38" value="" style="shape=stencil(lVfLctswDPwaXTEEwOc5Tf8jM3FqT10747ivvy9UVbYJyZvmJstcClwsFuCgD2/bp9fNIOHtfDp+3fzcPZ+3g34aRHaH7ea0O9vToI+DPrwcT5svp+P3w/P0+/VpXDk+fTv+GHf4NeE4BAphhEn4Pb1KlMvfF58nwH53uAG0TDl16zlSVQAQCtwBJFMEgBopxQ6glWK8DyiFcu0AMZHm+4DcSEt/ZqHEAMBU+zOkRhWElIyTPqRcSNN9QKwkfRpKmhOzDhBqrQNUpgISp4Vq7gCNKaM8eFZbmHdYXc9Kon1EjSI4MzfiPtG1UpL7AJNmqR7A6MxCsXgACmlUWvNnUKCMuDi0sfSPt3VAJna0WpAo0YWC+0LEIRlLvVitZrlBKWmfh2ZaQSwVkp7WZqkEiVOmkDwAaUkuR7y4zNWo1sVUZvXffAKJiYXY0WTJB5kr1NTT2oD4kjfKlqBY0xzuZb1pC2ShUFrUc0QHZu+rpu0KAjJKQ/8Fqx5kMaKU1AME6SKQLApagFTVuk/wgAaEFHluTjf1yag+00ziDa0V1Wf2Rmx5Qx3UAOoAlnoU0mW/m/pU4NwfBixmgJpgx43eh0uD+3PwpBZsemyk9oAc58zfk57v0JkKEIZZUnRDA1aSNm9J5pvyjg/3XzD1BsCSDQ1uLBmJBmnIYTagi0sqNcBSVl8+ce4V6+ujL2id++P6epvseseQ9wYx6UuBoSxMNbX3VGu2YP+ykFGAndBGKOdHuOnU5AstwD44Gq669QnNzgtDZSg560jO4gXGYx2v9HpQvP+lYVz1A1vOR28X/wGwh+tl5mW33093odv//eXHXk0XJ338Aw==);lineShape=1;fontSize=16;" parent="WIyWlLk6GJQsqaUBKTNV-1" vertex="1">
          <mxGeometry x="150.77680912199435" y="926.5077083722456" width="12.061888866042194" height="42.47488879797426" as="geometry" />
        </mxCell>
        <mxCell id="vp01Dy_aqY1F1hco7SnQ-39" value="" style="shape=stencil(lVjLUhtBDPwaX1Uz0jzPhPwHVZjgCsEUkNffRxvXrC15t23fzKLe1UitljQbuft4fnjbbjh8fL7vv29/7x4/nzfyZcO8e33evu8+9ddG7jdy97R/33573/98fTz8/fYwWU6/fux/TW/4c8DFSK1NKA5/D08CSf//4OvB/mX3emrfKHVjzyRp3Z4rhWrsE3Vet5dKEo29Pqjr9kkoW/87cQT2nZr1XyPAbR2QC6ViAfpJWQcUoWQ9ipk6OEIN/sga5BgAoPgzaNICSFpjqg7AxGUd0CPVZAFlOLkMaFTsoSVSyIBHQV0OFpHhqfUT0SZCOj5EoCSWeoUCSHVLlKxLyhYBgFo9IDMElE7RJiJn6FIJg2szoBKDuKoDMVtAGxW+XBDJh1W/GUCqpfhUK6CBxGlFFhulgktO6c/iAQVkWgsssAVkSkCVpoq0eahz3JYBZajiDOjjFWuAZHWvVYpANhTghSxTAXlQANuw9goTN0XJuqQlxUCYVOjE5qF3SD6VUkc+BTQAaFStRyeysFwPlNh/oIA0pNE8To7cAZOYWvQxRdUTRzOb7TWNiKleiDXJEbVPL2FdqIL3638diZgyiE8e0Zvt1UPA0jqid2IPKaS97TYAU0lnHoGBISbK+ZYjT7UfbonpVJnOpXyplJNjURlOrrmUHY0u0E7GRHElr7Uyu3MJF06nfFtlqro1/wFU+nlo1ZXaIqPXXylePOrqWnWk6mh0QX5vtm+OdWHMAmv2Nj5Nhnas2GcbnzrTdtE+eP91NhFQZ2fjWmF4XvZDrQ7S0P/gpTHLmBuWAdVPwQrIiBFKGPaABIomaTtzZ5j1eBmg8uiGrwi/oNOfqxqdODuaB9k3tNQogDRrVoPlRVKeom0kUbWH1hULqZ0uF24IljZEfxmQfdcXnUEB9XTUKjZxEkafW9uonDzq4IBWsKJzgj3DtKYi9dL3uQWJR9xW907nkrZG8AWNejrfClHr56GfMyDBWUQdcKu/domMJIwHN2dNgj3kbHPWzQEQKY+l4GiOzpuGXM21BtdyFRMbnQQppO3GiovA/ired4GMliGdx0sUhlMsu2YMpT37xSCMiWclTU5SwhiyVxp99W+P6GZgBOJojsYIbQNu2ArwVuDm+6uL9vrjeFn2tHt5Ody1nf7fX67po8PFnNz/Aw==);lineShape=1;fontSize=16;" parent="WIyWlLk6GJQsqaUBKTNV-1" vertex="1">
          <mxGeometry x="159.75210317353435" y="923.7968217132611" width="38.47255662193795" height="64.89817079794337" as="geometry" />
        </mxCell>
        <mxCell id="vp01Dy_aqY1F1hco7SnQ-40" value="" style="shape=stencil(lVfLctswDPwaXzEkAL7OafofmYlTe+raGcd9/X2heqiYkLVtbrLENQnsLgBu5OFt9/S63XB4u5xPX7c/98+X3UY+bZj3x932vL/Y00YeN/Lwcjpvv5xP34/P19+vT9PK6enb6cf0D7+uuMwU6oTi8Pv6Rqnlvy8+X9cf9seb9SWQlGG9UGjr6yuTxmF9oMLr6xtTbm59COvrY5i/vwfACjYoxOOBopCCHVqkmEZAgSmykGU8keUoRpDTSEVGQKWc1gE5EPNIgpKCoLVSdSwbjwAgheoYtGZSEDRbTsYdEhMDYRivaRRSKpC4mCjoAMiRtACAeB5y7lGt7dBGaRSmiII24hygUEGARjKqu9ohBRAXKI871EYNqFXNP6OWTL8BSUO9f8yCCQPSyHQzx4GgDeB4aJkC8IOaXcYsmWkzCjqSuCPNgr8v70ZhlHdrncr7gNz9NReBgAuTCFVdbAEqn0RKwQeBqDYx5bJIExCTVZWUF0RgALsdFJva0u7Ux93m94MOFB1zJlcgJmGvjckQKK1KWT0AydVKH1cPQFXAxOSCNgDiwTwaxvLdZpuvGcKbmrGDrB24tEoXy/8CEimKQXqHuhFfxIXJW652wa+m1YmvkQLxGXEiHtCQ+NTPGgaAZcNa2mIHBln6MGDqKK4ICDHqWdLFPIvPeAB+mGmdW5aVJbDBYryyCTABFuaePDfdAGt3ojJykFLn/f7/W0rHAyUrnMALFkFcjDIJVYzQvXUzLCGl2ucymseKP6rcdmLX1W18QqOMTelxzKrlmcEONlK6qmfDjQCaa/Y8x0AKAEWpOoAdEswNedlCBbotq09rVFhisvi7jAHQ7DMNkMkfCfXo1PyUa4AIspRqnwdvsiSgmdgQ7KpejPB6YgDxkwkJiqH4y0PrLXVtvZtLak/zWsiupRdIguXUXcgy1lHo4+lcAGCn+ugN99/r7eH9Ov2yPxyut/Hb7/76ba+uV3d5/AM=);lineShape=1;fontSize=16;" parent="WIyWlLk6GJQsqaUBKTNV-1" vertex="1">
          <mxGeometry x="199.43786865956554" y="957.4859789505565" width="32.61425167980801" height="49.021824310233285" as="geometry" />
        </mxCell>
        <mxCell id="vp01Dy_aqY1F1hco7SnQ-41" value="" style="shape=stencil(fZbdcgIhDIWfZm8zQAg/17Z9j85U606tdqz9e/tmZ0c0uJ47xP0I5JwEBl59bp8/1kNwn6fj4W39M76ctgM/DCGM++36OJ50NPDjwKvN4bh+PR6+9i/z74/n6ctp9H74nlb4nbmSKZeJCu5vngmZ6jzzNAO7cX8FVKEsBuBKrgKg9oAE8gkCbLeUhEoEQKSUDZDLeWYRKIl8MEDRmHwfyBrBG6Amyu4+kDxxMoB3jhwgYu7TVAsVkFcWCs4CTBEoF4RctKeOxHIf8IXYpikHikAIf+MNUW94AGSSaoAoFIE3AlOyeWU+p2E5S9yfQZcQILVuQOwZdJNoS9Ls3wA5u2XZTIHECqeJ9kDpSaauRiNVcAY1QhdBzeLBli5WazpkSsBLV25uRaqWRyFawTQzRRIQYirJzq5atkBqLfouwqUxLBepthWb10vrWZY6UOAeyKCCtDV625mm9gmUC4Wc3VLJMMIE1BsA2FW9JraVlQB7n3c9oMKhCLEvIM1zBPZ25/umNQ1tVEC2G+fFCC8g398O2hNQuQlVu752DBfA+q0ptnqO5JFmeuIuo9DY7KjY71UxdJV4EntifPWorW++R/dC4t7V3DlIB5cHx2bc7eb3yvX//QNFp+bHDT/+Aw==);lineShape=1;fontSize=16;" parent="WIyWlLk6GJQsqaUBKTNV-1" vertex="1">
          <mxGeometry x="284.9344334937248" y="776.2143462698127" width="4.918462918016016" height="4.910774964586572" as="geometry" />
        </mxCell>
        <mxCell id="vp01Dy_aqY1F1hco7SnQ-42" value="" style="shape=stencil(fZbdcgIhDIWfZm8zQAg/17Z9j85U606tdqz9e/tmZ0c0uJ47xP0I5JwEBl59bp8/1kNwn6fj4W39M76ctgM/DCGM++36OJ50NPDjwKvN4bh+PR6+9i/z74/n6ctp9H74nlb4nbmSKZeJCu5vngmZ6jzzNAO7cX8FVKEsBuBKrgKg9oAE8gkCbLeUhEoEQKSUDZDLeWYRKIl8MEDRmHwfyBrBG6Amyu4+kDxxMoB3jhwgYu7TVAsVkFcWCs4CTBEoF4RctKeOxHIf8IXYpikHikAIf+MNUW94AGSSaoAoFIE3AlOyeWU+p2E5S9yfQZcQILVuQOwZdJNoS9Ls3wA5u2XZTIHECqeJ9kDpSaauRiNVcAY1QhdBzeLBli5WazpkSsBLV25uRaqWRyFawTQzRRIQYirJzq5atkBqLfouwqUxLBepthWb10vrWZY6UOAeyKCCtDV625mm9gmUC4Wc3VLJMMIE1BsA2FW9JraVlQB7n3c9oMKhCLEvIM1zBPZ25/umNQ1tVEC2G+fFCC8g398O2hNQuQlVu752DBfA+q0ptnqO5JFmeuIuo9DY7KjY71UxdJV4EntifPWorW++R/dC4t7V3DlIB5cHx2bc7eb3yvX//QNFp+bHDT/+Aw==);lineShape=1;fontSize=16;" parent="WIyWlLk6GJQsqaUBKTNV-1" vertex="1">
          <mxGeometry x="305.1449726590208" y="766.5483691933325" width="4.918462918016016" height="4.910774964586572" as="geometry" />
        </mxCell>
        <mxCell id="vp01Dy_aqY1F1hco7SnQ-49" style="edgeStyle=none;curved=1;rounded=0;orthogonalLoop=1;jettySize=auto;html=1;exitX=0;exitY=0.5;exitDx=0;exitDy=0;entryX=1;entryY=0.5;entryDx=0;entryDy=0;fontSize=12;startSize=8;endSize=8;" parent="WIyWlLk6GJQsqaUBKTNV-1" source="vp01Dy_aqY1F1hco7SnQ-26" target="vp01Dy_aqY1F1hco7SnQ-18" edge="1">
          <mxGeometry relative="1" as="geometry" />
        </mxCell>
        <mxCell id="vp01Dy_aqY1F1hco7SnQ-50" value="1,*" style="text;html=1;align=center;verticalAlign=middle;resizable=0;points=[];autosize=1;strokeColor=none;fillColor=none;fontSize=16;" parent="WIyWlLk6GJQsqaUBKTNV-1" vertex="1">
          <mxGeometry x="165" y="418" width="40" height="30" as="geometry" />
        </mxCell>
        <mxCell id="vp01Dy_aqY1F1hco7SnQ-52" style="edgeStyle=none;curved=1;rounded=0;orthogonalLoop=1;jettySize=auto;html=1;exitX=0;exitY=0.5;exitDx=0;exitDy=0;entryX=1;entryY=0.5;entryDx=0;entryDy=0;fontSize=12;startSize=8;endSize=8;" parent="WIyWlLk6GJQsqaUBKTNV-1" source="vp01Dy_aqY1F1hco7SnQ-5" target="vp01Dy_aqY1F1hco7SnQ-10" edge="1">
          <mxGeometry relative="1" as="geometry" />
        </mxCell>
        <mxCell id="vp01Dy_aqY1F1hco7SnQ-53" value="1,1" style="text;html=1;align=center;verticalAlign=middle;resizable=0;points=[];autosize=1;strokeColor=none;fillColor=none;fontSize=16;" parent="WIyWlLk6GJQsqaUBKTNV-1" vertex="1">
          <mxGeometry x="205" y="38" width="50" height="30" as="geometry" />
        </mxCell>
        <mxCell id="vp01Dy_aqY1F1hco7SnQ-54" style="edgeStyle=none;curved=1;rounded=0;orthogonalLoop=1;jettySize=auto;html=1;exitX=0.5;exitY=0;exitDx=0;exitDy=0;entryX=0.248;entryY=1.013;entryDx=0;entryDy=0;entryPerimeter=0;fontSize=12;startSize=8;endSize=8;" parent="WIyWlLk6GJQsqaUBKTNV-1" source="vp01Dy_aqY1F1hco7SnQ-17" target="vp01Dy_aqY1F1hco7SnQ-10" edge="1">
          <mxGeometry relative="1" as="geometry" />
        </mxCell>
        <mxCell id="vp01Dy_aqY1F1hco7SnQ-55" value="" style="shape=stencil(lVfZctswDPwavWJIgOdzmv5HZuLUnrp2xnF6/H2haugKpLyZvMkylsSxwEKTPLztn153E7u36+X8fffr8HzdT/JlYj6c9rvL4apPkzxO8vByvuy+Xc7vp+fl9+vTbDk//Tj/nE/4veBqpZxnFLs/y5tI3v178XWxPx5OK/tSKLKx95Fqug/IlUIyAE4UIgBEctUARCiU+4BUKdobgqdYASCQOAuoVAEgapKiTVJpadsGRCo2SymTFwAQ8vaGHCiBoKOjKgZQPBVQuDlEe0ONFDwAaKXtDTVRRTeox8ECCjHfB0ihZCutbOQAAJ7E94ACuMRCnHoAqrSSWQaXErhhTFKBHslwfm5J2LR3FH1fBAa8cOS78wNkKvfdWdVDQNTcpsPNnlu7bidUKHUATwxYxL5vzuooA1JwJSkDAEwkyeRGlwAgaEpSH7QHQYfcWnGVVTTzwo3Gq7JV1JzaKF2dE+7mNBBDnUQAR8UKgzK7ouYUKl0ddGyiSt+E4yYlzrXSbJMpNw/W/Q+C8K417wrgUak3gvbogiGrCbabG6gXP2jnz9lzr86qCsj/RM7Gm4Uq8H8QkZTguPCBgnUo5nbENqCSsyxSHUIALVnHCWVuAC6piEQbg3Brpnsy5W2SlLkCOiHEPmhNAxIRVX+2QQsW/4GmTAmwWnOerYr4ttBss8L3Sq7bBtrAdPb09gEIf9ZVRTp7B87PmULt7dGSKv0K6VoJ7y21wp09WiB1/Hfj2sNFpw75UdEEBJp3CFtfwXPRDXMi4As+ufV/bK8P/z8xXg7H4/KFsv6//yTRV8vnjDz+BQ==);lineShape=1;fontSize=16;" parent="WIyWlLk6GJQsqaUBKTNV-1" vertex="1">
          <mxGeometry x="515.1300781953009" y="690.9200510525739" width="8.460159506525757" height="45.35848629202424" as="geometry" />
        </mxCell>
        <mxCell id="vp01Dy_aqY1F1hco7SnQ-56" value="" style="shape=stencil(7VnLctswDPwaXzEkwec5bf8jM3EaT9M446Svv++qHioSKG+SWw+5yTYgcoFdAKR3evV0d/243wX39Hw6ftv/Otw83+300y6Ew8Pd/nR4xtNOP+/06vZ42n89HX883Jw/P15PltPT9+PP6Q2/z35apIbJK7g/52+cxPTviy9n+/vDw8I+JvHN2Gu7bJ+SxGrsfb1sn6M4b+ydu2xfgni17w/Evkkrxr7Gy/a1SFzbq+R82b550bSyb5L5+w1eXySRBUqRvA5oiJI8cfBS1xEKRRoJaU494jNkL0FJjsEhE6MoWoiDk7wmHWgYCIaonZSzQ+u82nTQLGlN0wgMZEtIa1vnAWuysHrwwKwQJZLEVXHV2lfC1CwhWPtCsoDVo7VXsp8gNVvAhezHd1rO9vMbNu2RY28zwPBC5yaeeAPJmBtY2rpUL9jrev9aJZDK5cUbe3CUyCaIrmUGDgYSH7WFV5MkUinwq1p7xwpFl+BClCxfU90ZNuTIhhSVNlmHSiIEwqRkQ0ohg8GG045qLA/dCSJopJ2V2HPaHVCbGpF9Dba+T9WPOeQOsTtkvIJEqbke9dmhdFTbDqHrpDugKSa2wlxIZofSUW07ZNvEEQZPtNbQZdcYsCbdUustaXbIlN1w8MZh5u+2Q7H1qFUpDDQEtwaNNTPDoBLWoL3jwwtSbVozlqgk1bX2HSwcGJnAvlIsatYHa7JlHolopO3AwZkVMPKxLSVbmBA4VpiAIZrMBTqjIkqWG74Xkkt5CGZoQ+8hoCfJDQ4MNGLidFiBKajY4goMkfEbbG42Solr1FIDMxBriG5ouY23LCxhxjbAckxztZeVBV2VzHkgp46CYKijra5T6WFx9Z0JSwem0baxpcToiuIbLGh2xoCCarNhfUVylkyJgn6/g1pRA1VloF3vB3MPmnvGdqfONko42CjZUm72VJKVdmr0ZXPUQ2tnecDZtpjhQbvMtwegYjt1bLTOYES1QzfIQjCEofThwM7Otz4PW0r0KPZxjPk4xvzXxxgvrQ4OTDKui3zhwK47dAxpoFc2E8PW1TS0ropth2bnEciI9XJUIjOPBH57kb1tUggDW6G4Xnfm4RY6ZvXa25NVoyeA8eKv9UrzxovFSkfn8eKy9guc7SwPF6OVl+phEqk0Ay80frH3TGdqR/9CTyMTJ9d4M9UNWF3X8Ux0zIF98sae9b7RPtJRcNyP9sr6RryBamyKpyE0v1GMdpxwdCIa+cAF9t6L+Nft8fBy6397uL8//2mw/N3+S4Cvzv8w6Oe/);lineShape=1;fontSize=16;" parent="WIyWlLk6GJQsqaUBKTNV-1" vertex="1">
          <mxGeometry x="511.1942190811628" y="684.1624377397252" width="36.822172085142626" height="57.22210588210625" as="geometry" />
        </mxCell>
        <mxCell id="vp01Dy_aqY1F1hco7SnQ-60" value="" style="shape=stencil(lVrZchw3DPwavbJ4k3h2nP9wleVIFUVyycr192lmi+tlc6dXepNmgRkAxNHombv06cfDl+/3d9H/eHt9+f3+78evbw936Ze7GB+fH+5fH9/w1136fJc+fXt5vf/t9eXP56+n/79/GZLjrz9e/hp3+Oekl7wLZWhF/+/pSnep/n/h15P80+PzhXzMrq7yIbjshUJwjRSSK+lYIZjzflUornehUF3Kq0KXJsEAMglGRqUAH+KqkFxvxwrm0uoCotqFz83Vtsin7Hw4lq+ukLz2uLqw2pODs3wsX1xLq3yR9y+urPHJ3TURnzIzYMqXeOv+dZWvzrR8X+RrmFeO/F3vX4urogqq67bKm5Q3Z+t5teRSkRnaV4Nac1EpVOdXj5u5LCxCicQ1JTpCJFIiRn5CL7NQrytsh9abayYUurOwKpgrQiFFV1cfzLsmfEg4N1IIM9OvKqBMqDANiSoSO1eXAyuoyi/BBXpCckEpJGeVFZLoFSgV6nZQyErBpouXCiL5anYpbQqqfGxafOm0yKUWZru9DKt4QitblKLsqCiXtuVSjscKPXHPQHpHkXz4OdOkRS6JpoTsD2uUYGQVqQGLaTa3OmvwukLkUTv6kppraQbxrOBl8tmWrUiWJk7atlwq6FTKh8xhLdmZODjbEAyGlYxSdn3FF1lPq6GwhhXjOego1TWsmP9d+YA+tzbjpE1C8tV1QgP4qQmK9K7rEzDEgmgCyE0q0YFqlEJ1cT3pAVOUQnSRTEoSZaDNeIJtQfelwlHCmKziHGrkGQesquZD9RNdX6JhhZSQOWQSeqGIUsFUXsMavOxLgF4ExtD/xdTNxkGyaeJ1+cJYpksYgOIiB7q0Z0DfTPJRFFsqLhIYmz3qujwgAvU82cHwc6gfkUfWG8krf4Gr0hr/OnHT4caWSV7itsx1meWug5/DKp/mA4/kaV2LctCOx9MCKbEz4kOo0Lui5DEjA8l7Ff/mCt/fK/s7DyivN2yb8+6nv17LU3xQQMLfsfHT8jgP/J3yWcKW3R69Sw1/V/kq50bc6r3NhDo6r8z1VZX9Wz60OZ0P9xy+f9D537kepf1bvZwb2DvrMct82Osd0PpGP+F6lPEsjOjO4OUo/pHrS5EzI9yN5GV/+6A88r9t9a7qJfMK6GfDvi5/xR6FObLf+5VCchnnu+ZnkDALaDjw+cp1Ee2G6Le5GR0BFCKLouZm+kZ2yXlXA+dPkXxjTZMzuKh3xaXVuSJdACxVYPXM/Z0V4qQVDrfdFegCVaoW3bDx0BOa3NhbYwIrmGxCgxxaFW5kXS88JceYFyZh282UFnkCo8OlidaBqpdX4CTyweQkNpuN/Jx5aRK710k173mhRnWrZopHGDGzyA3ltV3ZXtU+AIVM5aCTyTb8gQpUgA4KntjQqNfdPpfbS7pVtAAoEF+E1S4rkzaM1m6EtfITxnqqwprZh7EAq2RKnExYsdVcsMC4qFcJpFBBzNBqk3A/5ryiJJh6ZpMQBjXLR9tYo4RAq5NuW43i7NXKPkgBIvpMrgd1K6BRUmqe7CbZRHDvpEMv+sIh45r5EaZYgbrx0jcUNrZyKCgawfNIMZ1MuTLsNM3eZ+R3ZAVFVGDRJ+CD3DCRTOjWnH1dr2rGqzvSVR31wPKUG1mSCZiatByh5NSUwyDnou7zZK4rbFigN+k0wAi9H0CZmzLJMwHUk+TWz3zMWd5LhhYAevWg3fBgA3BRFoNngF41w+SZkAJkVO90NhBQTMKG7f4l37CH3gsUTcJ7XiBRq4pS9ww/gUmKuP/W5FGpagM4j+ILtjuo1rIhQ5sr0/XexX1iUGzyba4RIZWk/Ibnx4aqSjIww4eqlq9/M79mwZWkSrJuG0OQgxlwnxuXJtXSXHEuSA61xHfmudMtUqcziai2hWHuJq+WfmO4ljSp7PldQ9Jvlj0vI1lC4PH2xUheLZ0pcA8tsgQgn1he5cO4P2F4ufRDfiO5VYse/jKppl57QJ6Wfj25P/oZ0215/PHzm6lvj09Pp0+uLn/nb6xw6fR9Vvr8Hw==);lineShape=1;fontSize=16;" parent="WIyWlLk6GJQsqaUBKTNV-1" vertex="1">
          <mxGeometry x="239.30626969962077" y="723.17188688335" width="102.91880786093891" height="81.35906758907511" as="geometry" />
        </mxCell>
        <mxCell id="vp01Dy_aqY1F1hco7SnQ-61" value="" style="shape=stencil(lVfLbhsxDPyavRKSSL3OafofAeLURt04cNzX35dbQ6rFtabIbb3mLEVyyKEWfnjfP73tluDeL+fT193Pw/Nlv/CnJYTD6353Plz0aeHHhR9eTufdl/Pp++vz9ffb02q5Pn07/Vi/8OuKY5K0goL7fX0hibL/++bz1f54eL2xLxRlsOdCJc/tfaTgBkCoxHEOCEK+jgBHUucA1gPnAeADcZkDoqc6xhAp8tw+ZUphsHfk3Ny+iv2+owgC8K5/rwEq+QAcOFsErzkVUDSmZHKqZUlzQI5U/FjmAGNOhdgACiVQhOStB9G0oar1JPaqJRJwJAnkywBIiRwImvvfDZCFAuC25qSOMRSPPXjyo4eqn0AeXCtTB2jhUPdkKjwCMoxhbbcxhqoNDbikVIuGrJUyKJwXkmwBFfSDOtjYC4hZM1JtBAG0jzLZ2CuRQP87S+2KaeFa83Z7HTjg/J5iHFmkCQXnkZaNbt+LPhvZ43lKakP//nmY2AAiZQTQ5s8WUEBrqur4zZEi4JDS2o29XAo5IFNKoiI2qagIa2saWocmRLPWzKMHpUVEQZeWkxveJdBpSmzbOAUKW9jGUJtS3C9csvPoRovuI7YTrMJ9IVnt1BgycMDkjH0v/aTZspl3ERJjK7WBMhgWH7UPjWVdQ0obT/eVlooRqdoyNpumdQxYlRQlSMcFjxGokqIBz9GuhKzzF6RUNvuUCmMGHqTapCrVM0iSKr1ZInXkIEAKJGNadSesYEZmTaKpGyxbESv92hkBOzC9qZsxWpDiZmwrFwtghnTV6wBtPjTyasthrxvDumlZjVKtOxYIWpNoARUueXpiNqu5x/uOztyxDlGXf6BV2qBmgEWmgPcd8RaA5FaHqtHnKK32M72VYAEOeXCWGnokpCSZqrNJqsA+2qG6XpnAxiONBTcjBrUn2yue0kLQkkrVXFILnHkfvdT+314f/t2gXw7H4/UCfvu/vXHrq+ttnR//AA==);lineShape=1;fontSize=16;" parent="WIyWlLk6GJQsqaUBKTNV-1" vertex="1">
          <mxGeometry x="553.8686328034166" y="682.118739740943" width="18.60494427767399" height="40.49982331144652" as="geometry" />
        </mxCell>
        <mxCell id="vp01Dy_aqY1F1hco7SnQ-62" value="" style="shape=stencil(fZbdcgIhDIWfZm8zQAg/17Z9j85U606tdqz9e/tmZ0c0uJ47xP0I5JwEBl59bp8/1kNwn6fj4W39M76ctgM/DCGM++36OJ50NPDjwKvN4bh+PR6+9i/z74/n6ctp9H74nlb4nbmSKZeJCu5vngmZ6jzzNAO7cX8FVKEsBuBKrgKg9oAE8gkCbLeUhEoEQKSUDZDLeWYRKIl8MEDRmHwfyBrBG6Amyu4+kDxxMoB3jhwgYu7TVAsVkFcWCs4CTBEoF4RctKeOxHIf8IXYpikHikAIf+MNUW94AGSSaoAoFIE3AlOyeWU+p2E5S9yfQZcQILVuQOwZdJNoS9Ls3wA5u2XZTIHECqeJ9kDpSaauRiNVcAY1QhdBzeLBli5WazpkSsBLV25uRaqWRyFawTQzRRIQYirJzq5atkBqLfouwqUxLBepthWb10vrWZY6UOAeyKCCtDV625mm9gmUC4Wc3VLJMMIE1BsA2FW9JraVlQB7n3c9oMKhCLEvIM1zBPZ25/umNQ1tVEC2G+fFCC8g398O2hNQuQlVu752DBfA+q0ptnqO5JFmeuIuo9DY7KjY71UxdJV4EntifPWorW++R/dC4t7V3DlIB5cHx2bc7eb3yvX//QNFp+bHDT/+Aw==);lineShape=1;fontSize=16;" parent="WIyWlLk6GJQsqaUBKTNV-1" vertex="1">
          <mxGeometry x="554.5086393942179" y="718.7932936382335" width="4.918462918016495" height="4.910774964586572" as="geometry" />
        </mxCell>
        <mxCell id="vp01Dy_aqY1F1hco7SnQ-64" value="" style="shape=stencil(lZzdst22DYWf5txqxH/yOk3fIzNxak9dO+O4bfL2BecMtbcWtj7Vd8fnABIJEsDCAuS39NMfH3/5/cNb3P/4/u3rPz/899Ov3z++pb+9xfjpy8cP3z59t5/e0s9v6affvn778I9vX//95df3f//+y5ScP/3r63/mE/581wtl28PUivtf77+JW3v/xd/f5T9/+vIs37dYVD5ey8e05XGST+uFL+XTvu1V5FMD+by1JvJlXMvnfctJ5BvJ1/Xnh/wA+RK3fpbPW+gg37e+i3xK1/I1b3sU+Qz2r13tn7eyX8u3uIUm8hXOq5UtZ5FvcF6tb0nXQ/bs+7peS75sEezT41ZVnvbb7XiSyNP6e1nmXvJ120m+biWIfKog39Q+dW3otXzfSj/Jt3XgV/L1fF7m0Bnl0/k+jC3Cfbb1j/P6w74V3nA9vyDELcONMwWxaMhb5yWVc8iyILbTHWpbkxgXMEiYkfbzpu0WjfIjp2BxL9IbxpbPYcICX4ZNj13PLdk7SSFs+bzpHJcZXitEjaQWK+nqDYvkEurG1mhJFuvOVrLoWmhJFnvEmS26gPeMopsuDc9hVA2PZaz7e6XQz2+ocdtp080FmIweagrjbKVaMUSOrnfJkkQAjzOFLm8Y652vFSxGnPfQAp+0Xe+zWVvCNGgK9QwTmuUpuhpDcYJlLjy4oQfXKnuc2eQcl1rD1D8Vqip0yFVhN3B0PjlLpwM05ivkIAZ70OGRR3rYMRqbQjmHvh5WXLhSkAQ3UzZfpiAKCYOrKQiktaSdyEruflvWrhQFuoKSmQEoznS9rv1wkUsFSbv7MsPlknZVIGA1Fc6btgxQ2UpyNcaBFS/Net60ZQB0iK4eNA50dqkgbyhYXUyFogqdraR7qFgfzYOTNxj8YCsJdrDfUAUznyfnYB5CB3fErScFgmRmdckoMyzQkqzoSarQyUX3teL/U8EcMlenQKAvKA59xOfXhUldz3tWgMtnKW1vTgH2UIs7aVOg2nAsd3lg6SMDvNZIGlxv1pQt40RnVwhMExS6u1EgfKcDaz8pEPpOaauicACW1xTD0JLPXISwwATnzqnpqGNUTPbAga8ztUV3F5goK4aqQPSBZV8rpLXiJwXClSE4H00YBaxuC0EVApWKW5M9W1ggj3PnHBFg1RfPp0OoypQMruKKwmKTp1rAMWcW1YgqyQ5lDIR7eVnvCWSQPbMesNWxlD2zMjcTV8GFSBogG4evtIiCZ8RNXuYg/Y7Pj2p/q3vofoZVURzyO9rTM09MPZm/SAHNGceB+VzwPuyaPiwWE4Z8yQBAWNwdk1owUJs9z/ZP7C9BsZdFgI73QWibSUVSplEmz95IqSwtIHdk17G47Qt/iSJf0V/ygtOHvNkTny/MscV4iidF43OICBzLohEO+YD3syhsNHkC10XJF8sgVMOX5d0PZpH4pqqNgY7Wr5qB+7quV8lFKmukXV+wtLSYrqxR3RJmUik6CmIBA2BCxCGaCa7FkrF+MHnBJgnL6eACSVyM7RUykWIgYC1g8lUchcGYawns6CfmdgI0dixbza1l/QzSLWzI5bHnExBri7h9yJOjBEcIBkTo8/nCXm+R7FnVcRMyaWafdJYvK1NeyUugLdhyCFnXU7DFYvKupUT1hclndcfE64n6fAo9Jr9rC4qongn91T6UV0y+a0uPOI/5/Cjy1OINjqbPi6G4tI/Gq0z3Jys5nO/Oq+l6bs5LqAJuqc77qfbB+FZ8y5NwsMm7li2R5+HocD7Ff/YvqWYL0v9zv9LzwIbEhDnOX0jeFTqHwa7kBRjeykvf6XY9ArRv9ps03hbOpy/8kbopU/6H7kPy95mwzEt5vp9RepELa13eTwHmvJ7iOsLIZPv1BMYnWe9zWAH+yj7Z4ROSj8qpcdcyRG1oJ47/cQsaf3aSD1qIZKyrDb91vf94P3eN/5XZYkXmjSciFn3+EEceV3kxZtM9CYWLcc3ZuXkiiTUUBsaergyxw4twl+uquJ9qQGpE1YUUnuQJuxWdfpo1KVHWmoomOMYaUGvYhvY8hpGeanaqMR20mrEE7Jm01JmxFm5b1Ept3j/iqhU6pMC5SKH/5GQIKynndjP1EZRDu+WUFBoW9PWwOOknTqzj+qV7VhgLR91v3VfxdiEvpUKtGDvTK04S75twYq0gFs7KibWBAyvFddsT3reqParJCSMNIh2n3hFreJZlrAh2IZ+Ew98x3vqmXFjF4RXRElWe2oRDOdsRGevtSpqPGzATV21/KKSVLi/RSVcF7NO4CdWR0UYWMrWBnDGlPkZ8D4UbJr8q1TgqQvQ43DnzPU1Jmymm0LkNKVMks6sIkSg7FDeYcJytVNeiprtU0pqseVIgZ5j9YNdxpkp4dpxdTxvhTVC8MhVuuuZ+0zQPa/nX7QE9urre61hO/tqlHb35GAh6rRCV/3oMorxWyArYH8M0rxXK8uAnBZzAcBShKVBvy48ZDkbV07+k21l5TqU5ny7ocXMBSRXwHJryhHfjP80F45sBIzc6fDfC1NzB3QxJNQWod2NYTRHGYLbZFKRE6OxAU8H1hW+WJJFvjsPdTKCeL18vyAjMmSeBJQxj5u0XXBIRV5mC1PgWeNAf3Jx75+7V9GDpGA2kEeZk2NmsrSOP4Cf0buZD/YTenEC9mW4TuFrxa4mpIHsoiPeGGwppXFANX+4nhA7z4GRJ3D7y89KG6XF400WN2tmsTatsqzISvcGsft5D5a+ARlGPq5GjRlFUWW5n7yXylcbnkHT8xEo3NOsxTXQo3AwCR+XhMs8AWqwWs+bKUWNfjbKnchjHEodmoNSx/rRySnpJKWNzrrvmXNq5d9y0BHo02q8Alv/aheZiurutd9/TVLXSpPzJSlUZYyujcNNVW86PpvWVlXQ4DHuwvSnR1viLoKqf9fF3Jd0NqzXsIfei8hV5vO7qpZsJBDfxWLFqtWRZtEdE4cVSn8Yj5MgtzSR9PgXI+Rmj66kSj+H88mhivZbPbniLR3ldHswIeOZnpO6zSpodck6cscDIu2LtfPuZre6XgHMcfkaAepLR9Vh49sl/hpyYR3XDmiZPPRk3jHXz/BefId/0/KvK48xFVuIvMceTNYImnrnIimYT88xOPnKPzq0nIs/p98uJ2NszMi/tzos/dvT3gT97/+HP6m/l7YfHN/y/ffr8+f2/AHj+u37zb796//8C0s//Aw==);lineShape=1;fontSize=16;" parent="WIyWlLk6GJQsqaUBKTNV-1" vertex="1">
          <mxGeometry x="441.0697069481182" y="654.9847465792818" width="290.6642275506415" height="468.26577978744547" as="geometry" />
        </mxCell>
        <mxCell id="vp01Dy_aqY1F1hco7SnQ-65" value="" style="shape=stencil(fZbdcgIhDIWfZm8zQAg/17Z9j85U606tdqz9e/tmZ0c0uJ47xP0I5JwEBl59bp8/1kNwn6fj4W39M76ctgM/DCGM++36OJ50NPDjwKvN4bh+PR6+9i/z74/n6ctp9H74nlb4nbmSKZeJCu5vngmZ6jzzNAO7cX8FVKEsBuBKrgKg9oAE8gkCbLeUhEoEQKSUDZDLeWYRKIl8MEDRmHwfyBrBG6Amyu4+kDxxMoB3jhwgYu7TVAsVkFcWCs4CTBEoF4RctKeOxHIf8IXYpikHikAIf+MNUW94AGSSaoAoFIE3AlOyeWU+p2E5S9yfQZcQILVuQOwZdJNoS9Ls3wA5u2XZTIHECqeJ9kDpSaauRiNVcAY1QhdBzeLBli5WazpkSsBLV25uRaqWRyFawTQzRRIQYirJzq5atkBqLfouwqUxLBepthWb10vrWZY6UOAeyKCCtDV625mm9gmUC4Wc3VLJMMIE1BsA2FW9JraVlQB7n3c9oMKhCLEvIM1zBPZ25/umNQ1tVEC2G+fFCC8g398O2hNQuQlVu752DBfA+q0ptnqO5JFmeuIuo9DY7KjY71UxdJV4EntifPWorW++R/dC4t7V3DlIB5cHx2bc7eb3yvX//QNFp+bHDT/+Aw==);lineShape=1;fontSize=16;" parent="WIyWlLk6GJQsqaUBKTNV-1" vertex="1">
          <mxGeometry x="477.18140101017184" y="681.0085646343273" width="4.918462918016495" height="4.910774964586572" as="geometry" />
        </mxCell>
        <mxCell id="vp01Dy_aqY1F1hco7SnQ-67" value="" style="shape=stencil(lVjZUhtBDPwav6pmpDmfCfkPqjDBFYIpINffR1vObCyNtx3ejK1GUuuendy8Pd697Hcc3t5fj1/3Pw/37487+bRjPjw/7l8P7/ppJ7c7uXk4vu6/vB6/P9+f/n65WySXT9+OP5b/8OuEC9TLAuLwe3wRT198Pok/HZ7PxIViduIhbIsn6mzEI0ncFm/E3Yhnin1bPAaqVr5RTEBeKFVrTiSuAFAoWAUxEQN/Y6MSLaBQByYpIUksoFIBGpTSHCwgjxBeBlRKDsBUQRC4U/GsMkqJSM26sJp4WT5RsFFgiki++pxjyiArUpjtSSDIKVNIRr6TgJCliR+NMcrqrHxYBWrRX5cuAzolq0GYRLYBRbPS1pl0qsCHonnaLEdlsHYRUJmS7ROZqQFWa/ZRyI0qAqhJNi3Uq4CaRRw/r4BGGQG0eVmW1KvGAKDtx/pQNReRhjqa51o6YYTyMqB7WpsmN2CpRyoOICTAhy6+Iy0aQLn17Juw+tAQQONqc2mJfQOAPtGqLQyw1CeWNA4BsaTZ7zR0mEsKcINKs6sAWmNYB9+KSIPpTRU2vzVbCnbCVVDXZMK8Zhu5rp0e9BkFsI1c10YC2oaGuicPqChybTIpkSCT2mQSD962AGFiqSKW6kjONQ4N54YCrNMaaTRxFdBdyUXq2OngKqiPItwCiDVJC4KxBtdcq642yAetF9cr86BhCyDFa7hSD8WO9brGfrMeXAGFMYk3K851MoGbwwVAGe120yQH6Nc0lCm9r3QycQUk1+IQbByWEkUD4sOA7Ldoza6GnBaffAtvSEMcM3DdsAK+M5R2nm0CkdPAuqHVC2yuS3d3NDEx2gW097oBUfE+E3xBaNtAgdB6Edc2yvhmayfLruQi9EH3I7Y+lDyuia29Mtm2seyyaHMVPxV1r0x4N2bbXHV/Rxerbt8uNZaDArCUuj/JlosIHQSJmjtQBF40eqFUC9C7ERX1fAJFvDvojcXFa0D9Xg+MaCdK7FhD8ANiOcvQWVn9IsoFA9LYwNbAhdEMN29pB2C4uSonrrmKjFvwMiD73UFNQut6FB8HPaYFmaT/r3iW0FRs/gji9RbceJFxvVjjjO6H6cFHMw+9gEzvSSqPKA1+U9djGm2UYeTMmTwaoGF4d/aC04G/wV9wGkKUdMFPzxjhBjCdDR1uSZN4pQyyYbImw8ekyVmB9TJxyTA151CN+/v/MiHAUfPBh8ur4vrh3xvpw+Hp6fTEev67f1PVr07vsXL7Bw==);lineShape=1;fontSize=16;" parent="WIyWlLk6GJQsqaUBKTNV-1" vertex="1">
          <mxGeometry x="487.33327845235203" y="768.4340927287858" width="183.92429338249858" height="20.980999754395416" as="geometry" />
        </mxCell>
        <mxCell id="vp01Dy_aqY1F1hco7SnQ-68" value="" style="shape=stencil(lVhJbttAEHyNro3ZZ/rsJP8wYDkW4liG7Gy/TxHEUJymWIZvMt1F9lq9HOLd29P96/EQ3Nv75fzj+Of08P50iF8OIZxeno6X0zt+HeLXQ7x7PF+O3y/nXy8P89+v95Pk9Ovn+ff0hr8zzktpEyi4f/MDJ2F+8G0Wfz69rMSjNDeIJypepMZB3HuJaV++SQ2jPN6g+/J4nS8DABr6TADRahRUEtEICqQ8AGKWygBqVUpeXNgHIATWp1liJYAkebQhKf9CFZcGQPYSIgHgfcUCaiFpEboTV4BI4hBhg7eAQtwai7TR6IxIewJQCcaGTFMjLQosgEqTO0VRHQHIJeKlVCSP6V0Qe2L0Na4LIPXsugmYvD6qVIpEEmk40XipVKnES7mIrxagjgBQD8kCHFGphBtGN2J0yT1Ma7cS1oAC3gCcJEZjKsVkq/b8vQmoQeJoQ269ym8Dkqi3AE9sqLVrvMrWQlijqmi1AGZ0Cz2Z1wDyhZa619cAYkOrmxL94Atqkw8ATwpIgyVj5G8kcdBtHLIo8ZI2SXFjAykgAGwckBrEaFXLrUhvJXQPQN2QACMyAHTMpeolMy9tAZV2IADa6FZkV/jA6NFLDZMAV8mZLyjl1ilwY2ooyJN5aeG5FYAmX+1tfKUS60BaRMdItyyFubXYltUcT41NB6pZMrMBgNGG6vowsQcw0wzo2RGqhJe8yVbYQOgeADOyooAiM7pJ2DR2NmBpszbgC4HZoJ1UVjawIRGAYoxOUvkXdKQZ9CRWD94hTqNOCLXnLNBGvyKZMqHvyYjxC0hXNvTphr5b46FuUsbhGyXnOMCpBSSeG58EJEuuKGqaTJsWBKMD+cK2yaFPxk+1UTxxrLMny2QAeKZSsMPG9E3WqJ2d4QDIRCX0j6zWS0wlJLPZaaY4kLESI1k29O3oSIYCa6MNGmmTw1hpOwocTeoBzJhHt4I9E2EBjMZm0p2oivAMxtQwdsUVL+zO98ZNSiOXQy/hBcBDjR3FjzppphNTan33XAWCra/Ys8KmtTPqwyZXTUEorVHsira11+63vW3UFkTm62vpnX8BRIlsBU92EG18C5p2dmcBzEuh9dli6Sg8NabzjxkTUdTs7pDsYoYyL8SGsFwZFkCgLcg3OzEVsDHro9neHUrsftu7MLlRJUwbbH31rtf8Agh0rlxet5x/Ck2l3ClikXd9INq58RnOiJ7OJpt6vt6bbso720EDX7GcJe7p6Egi4HprWuR9Z/IdecN4SBJG285uGsiRSvU3g5gPdC2G/Ki/0l7rbLj4hussTUR673GWGT0/yFrfOHonWa7BV3HWnD55rP5QHD+ud/HH0/PzfFZf/9/e0fFovsHHr/8B);lineShape=1;fontSize=16;" parent="WIyWlLk6GJQsqaUBKTNV-1" vertex="1">
          <mxGeometry x="499.35159811818585" y="818.2766727324783" width="146.6775132887994" height="14.995596028172594" as="geometry" />
        </mxCell>
        <mxCell id="vp01Dy_aqY1F1hco7SnQ-69" value="" style="shape=stencil(fZbdcgIhDIWfZm8zQAg/17Z9j85U606tdqz9e/tmZ0c0uJ47xP0I5JwEBl59bp8/1kNwn6fj4W39M76ctgM/DCGM++36OJ50NPDjwKvN4bh+PR6+9i/z74/n6ctp9H74nlb4nbmSKZeJCu5vngmZ6jzzNAO7cX8FVKEsBuBKrgKg9oAE8gkCbLeUhEoEQKSUDZDLeWYRKIl8MEDRmHwfyBrBG6Amyu4+kDxxMoB3jhwgYu7TVAsVkFcWCs4CTBEoF4RctKeOxHIf8IXYpikHikAIf+MNUW94AGSSaoAoFIE3AlOyeWU+p2E5S9yfQZcQILVuQOwZdJNoS9Ls3wA5u2XZTIHECqeJ9kDpSaauRiNVcAY1QhdBzeLBli5WazpkSsBLV25uRaqWRyFawTQzRRIQYirJzq5atkBqLfouwqUxLBepthWb10vrWZY6UOAeyKCCtDV625mm9gmUC4Wc3VLJMMIE1BsA2FW9JraVlQB7n3c9oMKhCLEvIM1zBPZ25/umNQ1tVEC2G+fFCC8g398O2hNQuQlVu752DBfA+q0ptnqO5JFmeuIuo9DY7KjY71UxdJV4EntifPWorW++R/dC4t7V3DlIB5cHx2bc7eb3yvX//QNFp+bHDT/+Aw==);lineShape=1;fontSize=16;" parent="WIyWlLk6GJQsqaUBKTNV-1" vertex="1">
          <mxGeometry x="642.3805041146127" y="832.1479143207994" width="4.918462918016495" height="4.910774964586572" as="geometry" />
        </mxCell>
        <mxCell id="vp01Dy_aqY1F1hco7SnQ-70" value="" style="shape=stencil(lVfLctswDPwaXTEkAL7OafofmYlTe+rGGcfp4+8LVUPXhKWd9iZLXINYLBbkJA/v+6e33cTh/XI+fd39ODxf9pN8mpgPr/vd+XCxp0keJ3l4OZ13X86nj9fn5ffb07xyfvp2+j7/w88F1yppmFEcfi1vYqamf958XgDHw+sNoFYqbQAIk8o2oCQqaQAkoVy2AbmQjFvK2mOuAlKhrAPAYra0DVADxAFQE4wgxokMgCYU6zYgVpI80hoChbCNuH69RghUMlrvUsiVIlgfmeJYBq2UQBlYSIovdImApNQp6QDbZEN1i1Tz/wBKpTZuiWN/sy7WSDwmzaYMwFJlYpd0oITawTYw1sFoYKC9GogdoFECUirFS0mFAmJJfDto6k2+3nCN1AFyp2EdYCmyj5AZACJp9DkkoKV0Z0saoLxTpsS+Dg1sKV0t4gowsYBKW4TixJd7D27lUF0/MCVUB6YwRoit136rDm304lggrSX0FG8AESRdlGTMYXY2kIOptd31dMX9kMfCseKOM5YcrWYLoIEM4HxJhArIwbbUnJZqb9otX1LXD7ZJTKsTn9qIQyYQvFVai0ZAazZtBg8IIAcTnwcoFF9qxKP4NJIgu18DQF/KXcy3Vgl8KekdSw0OFCtTZA/IoHCzR7ixq7CnrYPTuKWCzViUojv9mLpAHSwHp9ZsVolYsrE75pBCj7lVuFp8HSpSK/sI83EFnBHnnnZ1wKYhnlXulV9fb5w7oyRB+yndIPr6AHvBzmohufXosNfYz8MAB25TP9IjLHHLd6YK57PdAvxA7wSvr2/+TJK7RLbWu6nQOgHrXRPujsMRO6pFUDc7tRvaVsorFx+guX+4KdnD33vWy+F4XK5pt9/9vcxeLXc6efwN);lineShape=1;fontSize=16;" parent="WIyWlLk6GJQsqaUBKTNV-1" vertex="1">
          <mxGeometry x="507.8753953520045" y="868.1469410680338" width="23.01143651135063" height="20.783447092987302" as="geometry" />
        </mxCell>
        <mxCell id="vp01Dy_aqY1F1hco7SnQ-71" value="" style="shape=stencil(lVfZchoxEPyafZ2SNDqfHec/XGUcqBBwYZzj79ObLRE0sJ34bdlVM2f3jCZ9eNs+vW6m4N7Op+PXzY/d83k76acphN1huzntznia9HHSh5fjafPldHw/PC+/X5/mk/PTt+P3+R9+LjhtUnVGBfdreZOy1PTnzecFsN8drgAhiXcjoEjJ6wAnbjwfsyRyvohvw3kNkpQ4FCSHAeCLBAKIKi6PFkTJ+Xzxt5+/hHT3fMvix5R6J5Gk1LubHMFEacREkzLGrF4yMdGKZFMFleAJIEgby4C+UBJ1zbZuufY39+tcpI4ulSYxrgPQZ34Mes40A6Bx/AioEggAnZnHyiHRqRKAsy5d1fIuQlVytCZiIe2NNFUbhCNBoJujsZCkMgvoNWNBxXOAKXVzlHHB23atRZRZSBIMINIY1IkagPI6ZIlj0NVLI7J0qxoAMKGMrYd4AUCpCCFSlJJs0MoA1fYSSFhIlrKz/V15fwNgGcTFGC4F0xpJlOgMgg7GQul6fj+ttSfxikBU7kN34ArAKq3J1mGWWzYSm+Sx0qBoJkEHVNpQFMpDXAKBLKejeGYBFDUx+E6pNUAzfLiUck1mquFD6u24CkgfAWA1yaNLRbsWrsm3KVzWPmPWBoQbAQmAf1B0DDr6nrf7gGSDRhocASDEOLa3x/pBYgBFTQwQTzaoIz6b9adKZYWLN7uDpxTFjDM7JeZkYZWuVu4BYOsMOJ2idYkNxXnnDBbABgrUuxkLShmHXrJZir1/13pJjYXca7/WS2YCQQsjE+Nox27CIsr4gEXY8CFIIFlKyPqorfiLxupQLB8Snw9IoqUo30M/fKH5DwAe/t6fXnb7/XL9uv5u71t4tdzV9PE3);lineShape=1;fontSize=16;" parent="WIyWlLk6GJQsqaUBKTNV-1" vertex="1">
          <mxGeometry x="553.8497452545992" y="860.1323249456486" width="12.655019731212777" height="28.270137985030154" as="geometry" />
        </mxCell>
        <mxCell id="vp01Dy_aqY1F1hco7SnQ-72" value="" style="shape=stencil(lVbLcsIwDPyaXHds+SWdafsfzJSWTCl0KH39fZ1moMghYrgZexVLq9XiLize18u3VUfu/bDfvay++sfDugt3HVG/Xa/2/aGuunDfhcXTbr963u8+to/j77flgBxWr7vP4QvfY5yDc0MQuZ9xIzBS+dt5GPGbfnuGJ0RWeMqgMI8X5KzwPsGL8X0H1gllZDePDxHF6wsQ0jw+CiQp/ImBi/gcIUEXjGzkXxhOFyzwBj9cIKLz5yNllwkNLaPBgYyOSUTUN0RCMSgSh6ADUiXZqJk9ihZFTmbRWZB0QLFZTQlOd61UWbAhC2llcSWAasY3peQJMi2aDOUh8IRVI6PaVY0f2maQ6uF1xYMuDCHlY0/PhWfIwtcAapVt1FuPWQuVzA7ECNaTdmUy63G5YfJLaCfNdhY+tfPMusgIEALpCwZvjOZkFl3BYL4GRZcDrNlncCMiNknybvKHkK740cTw8unSOQNrJ40RLYtMyFoYXKVo8FpSq7x6p1V1NfkYdUABGwGJ4BptOFut1ZBCc4WYvFJp5Sf5WNbcfDrNq1RfNg2gYYmjaQATZVSeReHr4v+d8dRvNuMz5fy8fZfUrfFNE+5/AQ==);lineShape=1;fontSize=16;" parent="WIyWlLk6GJQsqaUBKTNV-1" vertex="1">
          <mxGeometry x="555.5435677254438" y="884.0121048048486" width="4.406423471773212" height="5.406024333811059" as="geometry" />
        </mxCell>
        <mxCell id="vp01Dy_aqY1F1hco7SnQ-73" value="" style="shape=stencil(lVjZUhtBDPwav6pmRnM+E/IfVGFiVxxMGcjx9+mNs7DS2h3y5qs9OrrVmt3ozfPu7mm7SeH55XT8uv2xv3/ZbfTTJqX942572r/g1UZvN3rzcDxtv5yOr4/35/dPd9Mvp1ffjt+nf/h5xpUmOU6oFH6dP+lNQv3zyecz4LB/XABqljIMoAUpnQCG9G4AJcr09hqgJSnJAHKQ3Aggy2gGkIaUQABFVA0gdnoCcmgWkNpchouAotLV5/D3Ly4CcpbkAJ3moEVqsGUtkknjEHG1VaqRA4IEe0ItMuJ1QAy+D7VJJJ2O0rNNYUgiOa8CQo0qySD7jLWJZhIPArLMSziAJICIomMe2lwIYEi1YogqkQBAm2TlVqnaoC11EUlk6sTXtgeB/h5i78H9PpCWdfDaqZ9SYqjUYgs0JBLSjS5qB5gqrVAMa15HiUSbY0h2gCyNxdRmnSyE0AlRR5FmT0CdE6HFSDJsWVucC3cZgKSLB3RSJthAij6kQcSDTrdqk+4ySFk7cnCAKoGdEGU4LSQ6hSeATbp0nkOa2/TBoYqkq61SQUgsabirnfMF5sZCgn3aHDLoyNiapHUPYFUC+ZzfIqRBNA16uxNgd4nkAAE5vy1VlLF1+E7DGZj1AOAEVDEFWEhv7rogH9PDqCsAyso0rTJsWaE4ZTlETw0AKFv7PEqXJzBNo9PR58AGWdd5LVoMssBOSH5qoA+NAaJXXA3UEC8DmESjJx88tbD9s8/cXK6TJCQMxurWhjBvc5dNuvoqYRVi4z6vdrdptyE5aJ8V/OaKYTaxy4Awk3mxK7GpAVt2XMIKmwkAi8uwfdAxE/7ahqsuh0R3BwTgdoeENZxv6dktG1UiAWBRcH3AwsouS8MzI9M+Q6DuFvC2GFxzdScGZFzJRQZuEu1gVRSN+VX1u0/+h0mrB+CKGUjX+nrDbdTgWvWeC8WykKBPtV2A5bEphrapLSumPyMSNp1gHXFaSxkxqpfb+5J57drtbtGTR7IT1C/2i8X3Grlz9kewQVlWN/vJVUlMpa+ybnTYgzrFhVRomTBZ3dyDDSsbAdXPjMFHMQDuZg9NBXbC/z5h+QAAL94f6DzsD4fz86Dl9/4BED46PzzS298=);lineShape=1;fontSize=16;" parent="WIyWlLk6GJQsqaUBKTNV-1" vertex="1">
          <mxGeometry x="564.1471051625258" y="866.9955929433127" width="31.07491702245577" height="24.978677016578764" as="geometry" />
        </mxCell>
        <mxCell id="vp01Dy_aqY1F1hco7SnQ-74" value="" style="shape=stencil(7VldUxsxDPw1edXYlmVbz5T+D2YIJVNKGKBf/766ZnycdbmlPNLhLQTvWZa0u4pvxxdPt1cP+10KT8+Px6/7n4fr59sdf9qldLi/3T8enu3Tji93fHFzfNx/eTx+v78+/f1wNa2cPn07/pie8OuEa5Vam1Ap/D59E0OgEP5+9fmEuDvcLxCFieOA0EpVtwG5UQ4joFAAAM49gBmQSNo2IEW/Q2N4hiikZQCU1k91HqAU6wCQRCwgpEpxzCvbDiAkVirjGZJQBFmyAHQERCblbUBtPq2hp+38ett/LLSlGeRoen51z0cpapGm/w3rUdFaJi7++RWsr8TJx5/BeiUd1zNFEL81ZRjzIzA/ypTH/MwJO78++/zEQApoMAFcwRgDLCIZAaU31XlAJB2PYMQQVGOlNtbMioDEwoqWxpCsChkArOvyeGiTDwaAUnybZtuhQKIl9tyvoNDGdHfokigmIBaZZGRmzV2gzgNmPZwBtTfXln7peIaqlBDAGmFMazO1AGewVivqAQ20hjWzaz4DCNKvXtbFEVBnZCrV5wi1XvL0NAEUcOLg9bcmanB9cF1h5ADnDV6urXMrSGigOsqFOXUFepe8QxUsL6YuY/6lUQHPj5Zu55kBCmRSCivPLIhoxbtyKt2ztkw2jDSwLKAdcvK8sTRHwMxcV5Kq3Sa21MW7rMJBQUp3sUVIqG6iXrRNUhsAmFqx28FK+cpIOLYqmzeC1rAd6pglLtCbrTXrGFIOECC1a8NC5Qtgm7A/dBYqqNLN8y2X/ojzgOwrbTsI0GA7ohswXnEqS2JLPksJ8SF7DXuh1BbAtTebn6OQxFub9RIqHFfS1QBQUJYiyYoPDdVBVoOzeSHqpeDdduI0AogfMSwk5LampM5tTZcaYlzshFwoHxq2yzzLzoULsPkmgGsNwb8LrQ6jv5naRiQzbwVYHdgNYtbw2B+c5dYAx9WPuep/masAO9/9XJX8BYxEaG1pxX0bawq6i5hptfDzjKgcfEjRzBPk9ONu4eNu4R3cLWj/nb+w5YQ8UFeWFqHWGdX9iBeJkVgknyUb7wMaU2O/RVzIKQNAyf4ictJ3IC9tdrwZ0CA5p0o3D0AKr+v7Eas9KJwW71EmCIKar3W6L26QBWRJ1YfUpA+uG7a88p3WYG/ofD0wX4NbLUEhVH0zKf7No9WPOyqdU+cB0p+3vPvHuuR6YwoSCVPo3rcAIDd/+wuMf0HYh5c3JjeHu7vTC5fl//0bFvvq9HaGL/8A);lineShape=1;fontSize=16;" parent="WIyWlLk6GJQsqaUBKTNV-1" vertex="1">
          <mxGeometry x="605.5205348758277" y="866.269092062771" width="19.346266392709175" height="20.41226936923522" as="geometry" />
        </mxCell>
        <mxCell id="vp01Dy_aqY1F1hco7SnQ-75" value="" style="shape=stencil(fZbdcgIhDIWfZm8zQAg/17Z9j85U606tdqz9e/tmZ0c0uJ47xP0I5JwEBl59bp8/1kNwn6fj4W39M76ctgM/DCGM++36OJ50NPDjwKvN4bh+PR6+9i/z74/n6ctp9H74nlb4nbmSKZeJCu5vngmZ6jzzNAO7cX8FVKEsBuBKrgKg9oAE8gkCbLeUhEoEQKSUDZDLeWYRKIl8MEDRmHwfyBrBG6Amyu4+kDxxMoB3jhwgYu7TVAsVkFcWCs4CTBEoF4RctKeOxHIf8IXYpikHikAIf+MNUW94AGSSaoAoFIE3AlOyeWU+p2E5S9yfQZcQILVuQOwZdJNoS9Ls3wA5u2XZTIHECqeJ9kDpSaauRiNVcAY1QhdBzeLBli5WazpkSsBLV25uRaqWRyFawTQzRRIQYirJzq5atkBqLfouwqUxLBepthWb10vrWZY6UOAeyKCCtDV625mm9gmUC4Wc3VLJMMIE1BsA2FW9JraVlQB7n3c9oMKhCLEvIM1zBPZ25/umNQ1tVEC2G+fFCC8g398O2hNQuQlVu752DBfA+q0ptnqO5JFmeuIuo9DY7KjY71UxdJV4EntifPWorW++R/dC4t7V3DlIB5cHx2bc7eb3yvX//QNFp+bHDT/+Aw==);lineShape=1;fontSize=16;" parent="WIyWlLk6GJQsqaUBKTNV-1" vertex="1">
          <mxGeometry x="614.2616076302377" y="869.0541707455527" width="4.918462918016495" height="4.910774964586572" as="geometry" />
        </mxCell>
        <mxCell id="vp01Dy_aqY1F1hco7SnQ-76" value="" style="shape=stencil(fZbdcgIhDIWfZm8zQAg/17Z9j85U606tdqz9e/tmZ0c0uJ47xP0I5JwEBl59bp8/1kNwn6fj4W39M76ctgM/DCGM++36OJ50NPDjwKvN4bh+PR6+9i/z74/n6ctp9H74nlb4nbmSKZeJCu5vngmZ6jzzNAO7cX8FVKEsBuBKrgKg9oAE8gkCbLeUhEoEQKSUDZDLeWYRKIl8MEDRmHwfyBrBG6Amyu4+kDxxMoB3jhwgYu7TVAsVkFcWCs4CTBEoF4RctKeOxHIf8IXYpikHikAIf+MNUW94AGSSaoAoFIE3AlOyeWU+p2E5S9yfQZcQILVuQOwZdJNoS9Ls3wA5u2XZTIHECqeJ9kDpSaauRiNVcAY1QhdBzeLBli5WazpkSsBLV25uRaqWRyFawTQzRRIQYirJzq5atkBqLfouwqUxLBepthWb10vrWZY6UOAeyKCCtDV625mm9gmUC4Wc3VLJMMIE1BsA2FW9JraVlQB7n3c9oMKhCLEvIM1zBPZ25/umNQ1tVEC2G+fFCC8g398O2hNQuQlVu752DBfA+q0ptnqO5JFmeuIuo9DY7KjY71UxdJV4EntifPWorW++R/dC4t7V3DlIB5cHx2bc7eb3yvX//QNFp+bHDT/+Aw==);lineShape=1;fontSize=16;" parent="WIyWlLk6GJQsqaUBKTNV-1" vertex="1">
          <mxGeometry x="614.2616076302377" y="869.0541707455527" width="4.918462918016495" height="4.910774964586572" as="geometry" />
        </mxCell>
        <mxCell id="vp01Dy_aqY1F1hco7SnQ-77" value="" style="shape=stencil(lVjbchoxDP0aXjW25Yv8nKb/kZmQwpRChpBe/r5ymS1rmT3AG6x1VrZ0JB3vip8+Ni/v61VwH6fj4fv61/b1tFnxl1UI2/1mfdye9NeKn1f89HY4rr8dD5/71/P/95dm2X79OPxsb/h9xnmhUBoquD/nJ46y/Hvw9Wy/2+5n9iFTyJ19pRKW7blQDJ29eixlGRAruR4QCgXgIWWS2AE4UMnLgJyo9kfmSgI8lEhROkDMxH4ZIN56SIGYAaCQGIA+AWmoYdrABMhM3gFAIu7zlgtVBCjkUgco6jNCQOk9lEyxAoCQ6wHiiEEeFOD7PAhTBWFVQOAeoFxKGNAfurrpFYsAUw6BKqCGAlLP1ktmrgMqBdcDtKRAHrxz5AxC34H2VKc8zQAR7UmueMgo1WlangEEeQgkg4cK2oboBvq4zuJwHZGHTKgLEFglm/jhELgNmIpoYQIEV/4nsQAGbUABcdiSRx78wFeZWs/SoV20gAwyJ4lSsYCEoqTL1QIiagN+GiD3AiIVeWRLWmGmu944tEbdDWdAYb1Q7c7E6bI9NKZGHcOKyVe1HtgCEL3rtXpABaS9tPSAmzVartUoomuc8nRnoxEdamkIE2hlWnIyeEDNsg21wQNqx48DPHkDwCNCATZzeAhplJxhHx5zDWCihAdpA/SZvjGqm8Z6SAy0QxsPDosybwtCBU1CbHU2rE0ygRot/2t+LsoAvXUDRpQ12QfYWrydKElgxak4zr0Hla4RbKm9bxDHESROBX7sPaj8roB80VnZx5h8uuz7xOkVAuVB7zxGY+klBdJ7mNMkgEmDINNGCJLmJiU/u5KBxq0vY2MO9SFJMuYBbIaJqzH3IFnJ6gs3dY7r/LS3EjVHI4fSYA7I7FUpRGsP8uTZDlkHL1VetU6wsQTb93li1cWeQan4YluWg7rl0cv8bXv9cfly8Lbd7c4fHubr9kuDPjp/peDnvw==);lineShape=1;fontSize=16;" parent="WIyWlLk6GJQsqaUBKTNV-1" vertex="1">
          <mxGeometry x="937.5101484871552" y="763.4778799634137" width="16.263937507240275" height="201.24510551436" as="geometry" />
        </mxCell>
        <mxCell id="vp01Dy_aqY1F1hco7SnQ-78" value="" style="shape=stencil(lVpJchw3EHzNXBFYCttZlv+hCFHmhGlSQVFefu+CJ9BsZHXnmLdZkN2ovSqBS/r04/HL94dL9D/eXl9+f/jr+vXt8ZJ+ucR4fX58eL2+6adL+nxJn769vD789vry8/nr7fv3L2Pl+PTHy5/jCX/fcK26Ugcq+n9uv8Tmgv/vl19vgKfr8x4QXMsroLpczgFV3PhvBcR2DijNtWAAkQCiyxUBgbwhZ9cKAlI4B0hz1bwhM0BwuSOg9XNAEtcz2iHlc0DsTiICKrFDFAPoLhBA6K4bgBC1hmxk6K4SoUN0ZbVD8s4Tobtrgusj8z1XGq7PxJOy87CfMJ9wbDUUOKkKSPAkJ+vzJVET6L+r20l3njw/ur4+f3g6cdPoWlrWayh1Im90ddV/VXvR9WV9fq3O0/3kNfJbcpXKK2uUNfVQFjSurh7d9flkP9nFdT89u0T8p5rnC4+YMONjt6FUCaBOf98AgXqcRr2HLXmartXjIU2oTlkiSg2DoDWqVCkuGkBOxAoaBt0AhAB0x4IyeJKIirjcENDJlsqWa3dqZXaom5l2hhNeNgsYLs7sdAwos8DsACzZVdWJIKATtWrpDwBI1DWauGbirRPX0G4ESo4GUCJqVa0nsyVhgDhdbWe4yEpOQrW24oRoqZsi0vyU6gyAWVX1xmTQpL6WBfWuQlxDAX19g/ovSzMDsL6hqFQkHoYMq1o1BllMKyCuatUoTyRE1RFgS1kNx+wg6K0itCtUS+c1L4mn1bNvxXIr/4WrNbpk+guWKjVHgFpHZ8veEKaZNoBukqlVA2iVITTaAmhirGsi07YvEUuP1LsKrVWvkHjQ5C6rpRtfX7FiZdpqt+xkrerbA47XJ6zqwdMBpkVs20KiRmhbV7ozAuuTNHXHFRC3geMYUM1MVWZjcAbAaaHM5vK0/Ji5kCUlBQQzebLmv+aZd/cAYgdNo5BYR4PGa24wgMDssLWPOy1FDshr9KizBiZ0QtcYHR0Jt7ElUCvPAAfzufovcw3BKWw4HxM6Y2JVAEvd6hqxIYDlGAXg5BmmGk7du6PQVIZqKINEW/va5qS2M1zmW+rGNdjwqQBoWtX5Cn+DN7QH7UHL7KV2AJoEMg7cg01iahWcWMcbOCBFBCS2pYQzrmqJdSYj4gTtQF1jc4SdpVkPqoBifImOlR8GZAwgLSgUUHAQDULbMXVvcA0tioXxhqbRKDR5axHFPDZb/bOqDonSU6qkbfTabj1rJ1U8cAtaS8Zcvj5fSwlriCN6UeDclrarASyQ6AjaTWUIlSaYQV5A6PDOrRu+REOHjdFjzjAEICNwesG5O2VKV3fTx6TOp4CGapU4p9gzAKRhKdyTGo4N0rmlO7pqjpQWUwCwzznTrKqAtgqt45tnPJT3WN7GhMgGjY5SF876DACMxZHr1QihaZBOVx1DrnKaqBvGRLMUq7hqaiTTMh/HKmYZHZ8CA5i0p1GbOZ/hgdPcWpuzxBeBYul01hjzWENAJRHUBGvJCBGyJa0lwCurDCzPaLWCDlQBkbVKBQ2nmYd2b4LTzKBEWAENeGilhmNjq4aLZASweanIJCN23Bhr7LOZKgdh8SFiVqteIyE6qF8LYMdiW0DutsTmpXFgYwB3CHLgZFStLBuHaqhfbukQZye1cz5GwTdscTV+qN1mi/3eOfDeR6tHxhdksj4YorjOzuBwvUeCf9C+RGBdv8Z/65SRMRmppZk2z9YDX1ommfg/13taDc3+S7wjLxhMyzPrJT2e4UibQ83ZetvCkELoZ0e09UiVMtYBSfdxaMSi2Bwk1zkMHOfGOUnsRjbmb/2A3KL+rFXbAApRUMiG3Cq0Ew4dTz4UQI/zZV5A2BN0RGYVGgfhTLeUxMiQp98eJ+uAp7G6SVbHxy2JhABaP7KZzYV28+OmB4zaiR5Zjbsk8SOAKnjA+n7If5ysA55LDBkYoGKbeocYahvLuQOwdDdGW6NWFv/NtEfjJgQbzq2lN1L9DICcYaZnXApANowzq+MNlg3jWkI7VNpPKQBZmHpPaDEA2gi3g6tS9ES2HtwaYpXq49e97gP0w/vtsm/Xp6fb5bT9/3gbTX+63WRLn/8F);lineShape=1;fontSize=16;" parent="WIyWlLk6GJQsqaUBKTNV-1" vertex="1">
          <mxGeometry x="745.5156448330754" y="778.794210080282" width="128.38054168937967" height="84.30207285520306" as="geometry" />
        </mxCell>
        <mxCell id="vp01Dy_aqY1F1hco7SnQ-79" value="" style="shape=stencil(fZbdcgIhDIWfZm8zQAg/17Z9j85U606tdqz9e/tmZ0c0uJ47xP0I5JwEBl59bp8/1kNwn6fj4W39M76ctgM/DCGM++36OJ50NPDjwKvN4bh+PR6+9i/z74/n6ctp9H74nlb4nbmSKZeJCu5vngmZ6jzzNAO7cX8FVKEsBuBKrgKg9oAE8gkCbLeUhEoEQKSUDZDLeWYRKIl8MEDRmHwfyBrBG6Amyu4+kDxxMoB3jhwgYu7TVAsVkFcWCs4CTBEoF4RctKeOxHIf8IXYpikHikAIf+MNUW94AGSSaoAoFIE3AlOyeWU+p2E5S9yfQZcQILVuQOwZdJNoS9Ls3wA5u2XZTIHECqeJ9kDpSaauRiNVcAY1QhdBzeLBli5WazpkSsBLV25uRaqWRyFawTQzRRIQYirJzq5atkBqLfouwqUxLBepthWb10vrWZY6UOAeyKCCtDV625mm9gmUC4Wc3VLJMMIE1BsA2FW9JraVlQB7n3c9oMKhCLEvIM1zBPZ25/umNQ1tVEC2G+fFCC8g398O2hNQuQlVu752DBfA+q0ptnqO5JFmeuIuo9DY7KjY71UxdJV4EntifPWorW++R/dC4t7V3DlIB5cHx2bc7eb3yvX//QNFp+bHDT/+Aw==);lineShape=1;fontSize=16;" parent="WIyWlLk6GJQsqaUBKTNV-1" vertex="1">
          <mxGeometry x="840.0921354879679" y="798.7566082969506" width="4.918462918016495" height="4.910774964586572" as="geometry" />
        </mxCell>
        <mxCell id="vp01Dy_aqY1F1hco7SnQ-80" value="" style="shape=stencil(fZbdcgIhDIWfZm8zQAg/17Z9j85U606tdqz9e/tmZ0c0uJ47xP0I5JwEBl59bp8/1kNwn6fj4W39M76ctgM/DCGM++36OJ50NPDjwKvN4bh+PR6+9i/z74/n6ctp9H74nlb4nbmSKZeJCu5vngmZ6jzzNAO7cX8FVKEsBuBKrgKg9oAE8gkCbLeUhEoEQKSUDZDLeWYRKIl8MEDRmHwfyBrBG6Amyu4+kDxxMoB3jhwgYu7TVAsVkFcWCs4CTBEoF4RctKeOxHIf8IXYpikHikAIf+MNUW94AGSSaoAoFIE3AlOyeWU+p2E5S9yfQZcQILVuQOwZdJNoS9Ls3wA5u2XZTIHECqeJ9kDpSaauRiNVcAY1QhdBzeLBli5WazpkSsBLV25uRaqWRyFawTQzRRIQYirJzq5atkBqLfouwqUxLBepthWb10vrWZY6UOAeyKCCtDV625mm9gmUC4Wc3VLJMMIE1BsA2FW9JraVlQB7n3c9oMKhCLEvIM1zBPZ25/umNQ1tVEC2G+fFCC8g398O2hNQuQlVu752DBfA+q0ptnqO5JFmeuIuo9DY7KjY71UxdJV4EntifPWorW++R/dC4t7V3DlIB5cHx2bc7eb3yvX//QNFp+bHDT/+Aw==);lineShape=1;fontSize=16;" parent="WIyWlLk6GJQsqaUBKTNV-1" vertex="1">
          <mxGeometry x="840.0921354879679" y="798.7566082969506" width="4.918462918016495" height="4.910774964586572" as="geometry" />
        </mxCell>
        <mxCell id="vp01Dy_aqY1F1hco7SnQ-81" value="" style="shape=stencil(3VjLbhsxDPwaXwlR1POcpv8RIE5tNLUDx339fSlsV1lxs9PmULTobb3WLEVyhqS0k5vnw93Tfufd8/Vy/rj/ery/Hnbybuf98XTYX45XfdrJ7U5uHs6X/YfL+fPpfvr9dNdWtqdP5y/tC98mXI2UakN59316kyL56c37CfB4PC0ARai4AZALed4GZCY3WiiVnGwDYiYZATVBC+Kp8gBg58i5bQQ7qmZPGe6pf65HiSmH7fXeBkmEAlrPNg0+Envgc6EyAjQKHgCifs9Y0C3lbUBKVGSMqicpAKB5GwGVJAFiaFDDsD5SBB7kHsLuAUXgQNb9+GG9owxIUZhCMusRiYpKx34f7V9pH6PZvwecqzJT8iU+iKMq5TLuv1COYH2261mIQYJroTomgAs5kIGqQh+FqZxDrFYLrowAfYN86JVhIYMISKfly9SKkCgBp7V8+TELSYsHElolHqOkxM2gfAWe/+55U2KAYsF1zmvfUiABFnyYS0NPXKYKqOTzzOSF9hloQaPOY+KUXCBvkimPBrqYXo+RzFldrAffD9U2Hexw1BStih0SZ0xUR4ebFkDfjMWGVLNSQUgVYEIqTBX4rFsyTUqbREQW1MURoGEuQM8h2y3pmwDEo9T+2WI6QGsIsCCa1hUA1SRxc0/qgN7oXqd2Ih6ZFBwWz6rtSIA1qbUlk+k8l7VNC6Y1O2K0Ja16YwHQyl2A0xqlOJaYCl3QNJTRhQTrtuY52VaFRoWwas0Jy9Pb9TrBJUTtZBsJJ9jMVW2mRP5iumh6Nr2tzkHYrBijBUkUUCN5M6CrdyGejPTMJM5aQHlrFthGCdXttEr0/z8Tsln/x2dCNFD9nZkQZPgfnAkr24NL61vAgrLIHO9igMdBHRnD6pQtqA+WeQN9fmFIJF615iRQadIHug7QQyuu2XF9U4Cc1mq1ipIA8eRixdb6CtiSqtONURLVE5BPm/7NTFXgtFCyjVKbXIHT1a3Ih69HVNG89gGxNdpRtR0gkIBWbA0BFkmVqDd5wNPz4rqlp5phX1AT5gImRgooTHXmWgdUeCJRr/PYDJXfSNRvvgn7DYA+vFy8PRwfH6d7u+X/9qJOX02XfHL7Aw==);lineShape=1;fontSize=16;" parent="WIyWlLk6GJQsqaUBKTNV-1" vertex="1">
          <mxGeometry x="755.5383747673038" y="819.4196105682363" width="17.941159906324987" height="14.836510652435928" as="geometry" />
        </mxCell>
        <mxCell id="vp01Dy_aqY1F1hco7SnQ-82" value="" style="shape=stencil(lVfRbtswDPwavxKSKFHSc9f9R4GmS7AsKdJ0W/++9Ax5puxc0DfH5oUSeXeUBn542z+97obg3q6X88/dn8PzdT/wtyGEw2m/uxyu+jTw48APL+fL7sfl/H56nn6/Po2R49Ov8+/xH/5OOM4kfkQF9zG98ZTivxffp/jj4bSIT0whmXhHzt2Oz4WSmPhEkW/H10i+mvgQqIbbAO/mBTRE9CQVpEgk2QBEiMEeiqPEBlCEJIEiZQp2E4tVbiLYUS0GUSsVkKKQsxlKpAQSrIqka/SgSEIxmHj2lAW0Ifc18pFyAcRw5KPNkMh7sKJKYpkUMVUlt/+bAZki2nOgbJeUAjEgq9bQ2SqlRAkRw7XPM0CogAwxrvom5ECVWInR6U0Vi5jHxHZJsZCAxilVueuDKhTsIVSKtg8ssHGaQeym9c2dPRQLCBH2QavUWUDAGbQP2XZaCS8AkPzKAmay3OJS7oxYrRMARBtnAWrdFWxaZvbPAKGKBKQW1JmAdjpDTXfk49p8ZDtDIW/7EBMsq0RiC1BJFcDWVMl1mo6Q3ir5vJKoIIkK+RUgIYnWJpfFkhjpIa6W5JpotwG+91blL+r0KFFLDVVIBn34MiAyxW5JWjfUB3U+WyXRsY64lNpMXtg9GomjV1suqc045Hy1H9Lj2EZ9kNbXBaAgIwtt6M8SrRCgn3PnfAXaTMhtizMAjyz93HFJD2TIvcNqZPnaVL4N4JXzJdhpzcBdhkAeARLl7gAHD1dapGqN787Qdb1AGR6WVNCdKYV2qt6O/+Ih/X68Pvy/EbwcjsfpQrH83t8g9NV0++DHTw==);lineShape=1;fontSize=16;" parent="WIyWlLk6GJQsqaUBKTNV-1" vertex="1">
          <mxGeometry x="775.7440124133689" y="819.5272761480146" width="15.365621503728779" height="15.727931950716659" as="geometry" />
        </mxCell>
        <mxCell id="vp01Dy_aqY1F1hco7SnQ-83" value="" style="shape=stencil(fZbdcgIhDIWfZm8zQAg/17Z9j85U606tdqz9e/tmZ0c0uJ47xP0I5JwEBl59bp8/1kNwn6fj4W39M76ctgM/DCGM++36OJ50NPDjwKvN4bh+PR6+9i/z74/n6ctp9H74nlb4nbmSKZeJCu5vngmZ6jzzNAO7cX8FVKEsBuBKrgKg9oAE8gkCbLeUhEoEQKSUDZDLeWYRKIl8MEDRmHwfyBrBG6Amyu4+kDxxMoB3jhwgYu7TVAsVkFcWCs4CTBEoF4RctKeOxHIf8IXYpikHikAIf+MNUW94AGSSaoAoFIE3AlOyeWU+p2E5S9yfQZcQILVuQOwZdJNoS9Ls3wA5u2XZTIHECqeJ9kDpSaauRiNVcAY1QhdBzeLBli5WazpkSsBLV25uRaqWRyFawTQzRRIQYirJzq5atkBqLfouwqUxLBepthWb10vrWZY6UOAeyKCCtDV625mm9gmUC4Wc3VLJMMIE1BsA2FW9JraVlQB7n3c9oMKhCLEvIM1zBPZ25/umNQ1tVEC2G+fFCC8g398O2hNQuQlVu752DBfA+q0ptnqO5JFmeuIuo9DY7KjY71UxdJV4EntifPWorW++R/dC4t7V3DlIB5cHx2bc7eb3yvX//QNFp+bHDT/+Aw==);lineShape=1;fontSize=16;" parent="WIyWlLk6GJQsqaUBKTNV-1" vertex="1">
          <mxGeometry x="780.3394884896127" y="839.1776866275427" width="4.918462918016495" height="4.910774964586572" as="geometry" />
        </mxCell>
        <mxCell id="vp01Dy_aqY1F1hco7SnQ-84" value="" style="shape=stencil(7VjLbttADPwaX4l9P85p+h8B4tRG3Thw0tffd1R3FS9XmsaXFgV6UxSNSS45Q3I3/uZ5d/e03Tjz/HI6ftx+3d+/7Db+3ca5/eNue9q/4Gnjbzf+5uF42n44HT8/3p//frqbvpyePh2/TL/w7YxzVoyfUM58P7+JVUz6+eb9GXDYP14AvBNTe0CR5NYBIUssPSBLLuuA5MQOAJPXAcWIDz0giTME4CRXDfh1DMuAJN5oQCQxlCrJ6FOyBFCdxB6QjORIAEFKH3QKYkkMNUnojzUVDsjiXQfIcJJkegGAxIVrXCpWAnNpCLpEDhiOtRQpliYu9qVRrXiW6aE0YLMywFB81UskMaQkJfcAZJqUBhhXB0AgfHBFjNFBl7oOsFCNPtPFSyClYbQBUJp5ZI1WGW8kEllySWwfs8WxEQs4JKdCkEIMgCxR8a3V4nKai3jlkG/0WAl5OKTgKAK16pRLVTyppIm/im9JKslztEPp1Va9y90BUmz7qF/DWg47NJm7EA1PGIq8ut5EBOEIHZCo3GfaVamsY1ltAalLxCUwtKYOYFpmVvMQ9PekweFEiopAImuITlx/pokGDBH1vf/WSSFHWpLWYYu6YGxAu+yP1M2qtgwITddnAfBNyteGgNKzxxepjAxo+b1LoFsktZ1nBZoB0GHiUoqDBd+axTLdqq6jgMIgvSTGltc5aKSSJC76JhAXXDCkNMCt0GcaE2MlOjlZULoXaPFNo5dq0XSexFxkegO+8XstC1aTjQ1WSHOq6nsmYKgj2x+ppZ0KhVpVL6TkBxPUCIPmmPmwqtTF5t+NMFpeAh30Jr3oC9tb2s4hSLYvbJ8pE6B4WfVC2ybqNUkNA9eYhE0Adw0g2Ub2GVBpVwhp2JTQiUimYaH2sh0K7WwhayqgYWfiEpa3qjYlJ+mqURKSY9mYNAyrAAQ2cP+JXSwOG+v/Xeyf2MXSsJb83V1svGoAwDM+DJcZcCmQKWO8LkHQ7LpkvJCpprF8eR4ernwAYKOVLQsWWC3ZqIsPmc7Mgmvr5sViEgnj0AJrHwMWUKZ8tf3c/L2hg1LRxY02n1iXHr5HSExjtD9Y3diV1Rgw5hrWrsYjTb6No29MGlSPbcRjWWB+jcTC1XeNbwDg4fVq82F/OJxvRi//r69C8ep8jepvfwA=);lineShape=1;fontSize=16;" parent="WIyWlLk6GJQsqaUBKTNV-1" vertex="1">
          <mxGeometry x="799.7103103923985" y="819.8671843837592" width="18.844276498501753" height="14.713021119676245" as="geometry" />
        </mxCell>
        <mxCell id="vp01Dy_aqY1F1hco7SnQ-85" value="" style="shape=stencil(lVfLbhsxDPyavRISqec5Tf8jQJzaqGsHjtM2fx8uFlKXWnuC3tYyKZLD4UOTPLztn153E7u36+X8c/fn8HzdT/JtYj6c9rvL4apfkzxO8vByvux+XM7vp+fl9+vTLDl//Tr/nm/4u+g5cm5WYvexHJREdTn5vsgfDycjX9nIZ0fM9+VDu63Jh0IZ3O+FcjEKXKj4+wr6dw5GwTNFAR5litaCJw8iyIHEynfMbspXoZDs/YFyBSG7TRJEyCdgokPSFGIgB0Aqlar1KStIAQbtbZ6VFzkCVGujQVOogRjAxEwpjhYcCNo78jbRqVIAMRRKA0hKVQCSTxR5TAOKWe+Taj3i5uNtkIR4UPCUQcyioA8xVEoAVfEkFtUYqQDycaacrYKHVOJEIraiIwVsgQd2V+iSaJpswUmggoKOxDZovQLBGjxFmwcliwcuadNKNmiNSoAFRT2F0YIALikRinVJU4nKIW2oMcMAEqfVMtRDUP5m0AM2edBM1wIslLGklUsBWEhhDDomYgSrVrzlkp4UVKI8TocZaOCShjhkWmvaIbaWxs2u4CgitvLYi6NWCHBpnnDWpTkqMOG0RKO1EDBbVSENCtqXwEzkSs66pJ0qoKB1KA691TcYbivUxs31HoBqujNnVaIB7QFp7BpfKERpm8sqcRFVnGvzqcMqDeh7TYA3fSmhgRLHdq81jdYrya1XrzaHCoJWtg5BZ48z7TdzvZAD9J773LA56AmoaSVftC7pylVQPeTW3LuC5h4phNZJu4LOB6Tg2qLQFbRToV0jjyvfagu8txiPQVRYELVtwSt5ZKBD0uUzbN4yMqlG2GT6KOjyDNfizfSZl1jQk/7/JfOVvH78eza9HI7H5dW1/n98ZunR8kSTx08=);lineShape=1;fontSize=16;" parent="WIyWlLk6GJQsqaUBKTNV-1" vertex="1">
          <mxGeometry x="834.7306946942592" y="811.9514459147022" width="14.743165141057466" height="18.61144307371672" as="geometry" />
        </mxCell>
        <mxCell id="vp01Dy_aqY1F1hco7SnQ-86" value="" style="shape=stencil(fZbdcgIhDIWfZm8zQAg/17Z9j85U606tdqz9e/tmZ0c0uJ47xP0I5JwEBl59bp8/1kNwn6fj4W39M76ctgM/DCGM++36OJ50NPDjwKvN4bh+PR6+9i/z74/n6ctp9H74nlb4nbmSKZeJCu5vngmZ6jzzNAO7cX8FVKEsBuBKrgKg9oAE8gkCbLeUhEoEQKSUDZDLeWYRKIl8MEDRmHwfyBrBG6Amyu4+kDxxMoB3jhwgYu7TVAsVkFcWCs4CTBEoF4RctKeOxHIf8IXYpikHikAIf+MNUW94AGSSaoAoFIE3AlOyeWU+p2E5S9yfQZcQILVuQOwZdJNoS9Ls3wA5u2XZTIHECqeJ9kDpSaauRiNVcAY1QhdBzeLBli5WazpkSsBLV25uRaqWRyFawTQzRRIQYirJzq5atkBqLfouwqUxLBepthWb10vrWZY6UOAeyKCCtDV625mm9gmUC4Wc3VLJMMIE1BsA2FW9JraVlQB7n3c9oMKhCLEvIM1zBPZ25/umNQ1tVEC2G+fFCC8g398O2hNQuQlVu752DBfA+q0ptnqO5JFmeuIuo9DY7KjY71UxdJV4EntifPWorW++R/dC4t7V3DlIB5cHx2bc7eb3yvX//QNFp+bHDT/+Aw==);lineShape=1;fontSize=16;" parent="WIyWlLk6GJQsqaUBKTNV-1" vertex="1">
          <mxGeometry x="837.4561877083627" y="818.9671153384802" width="4.918462918016495" height="4.910774964586572" as="geometry" />
        </mxCell>
        <mxCell id="vp01Dy_aqY1F1hco7SnQ-88" value="" style="shape=stencil(fZbdcgIhDIWfZm8zQAg/17Z9j85U606tdqz9e/tmZ0c0uJ47xP0I5JwEBl59bp8/1kNwn6fj4W39M76ctgM/DCGM++36OJ50NPDjwKvN4bh+PR6+9i/z74/n6ctp9H74nlb4nbmSKZeJCu5vngmZ6jzzNAO7cX8FVKEsBuBKrgKg9oAE8gkCbLeUhEoEQKSUDZDLeWYRKIl8MEDRmHwfyBrBG6Amyu4+kDxxMoB3jhwgYu7TVAsVkFcWCs4CTBEoF4RctKeOxHIf8IXYpikHikAIf+MNUW94AGSSaoAoFIE3AlOyeWU+p2E5S9yfQZcQILVuQOwZdJNoS9Ls3wA5u2XZTIHECqeJ9kDpSaauRiNVcAY1QhdBzeLBli5WazpkSsBLV25uRaqWRyFawTQzRRIQYirJzq5atkBqLfouwqUxLBepthWb10vrWZY6UOAeyKCCtDV625mm9gmUC4Wc3VLJMMIE1BsA2FW9JraVlQB7n3c9oMKhCLEvIM1zBPZ25/umNQ1tVEC2G+fFCC8g398O2hNQuQlVu752DBfA+q0ptnqO5JFmeuIuo9DY7KjY71UxdJV4EntifPWorW++R/dC4t7V3DlIB5cHx2bc7eb3yvX//QNFp+bHDT/+Aw==);lineShape=1;fontSize=16;" parent="WIyWlLk6GJQsqaUBKTNV-1" vertex="1">
          <mxGeometry x="358.3140194045509" y="665.3498174495749" width="6.23005302948756" height="6.2203149551429915" as="geometry" />
        </mxCell>
        <mxCell id="vp01Dy_aqY1F1hco7SnQ-89" value="" style="shape=stencil(fZbdcgIhDIWfZm8zQAg/17Z9j85U606tdqz9e/tmZ0c0uJ47xP0I5JwEBl59bp8/1kNwn6fj4W39M76ctgM/DCGM++36OJ50NPDjwKvN4bh+PR6+9i/z74/n6ctp9H74nlb4nbmSKZeJCu5vngmZ6jzzNAO7cX8FVKEsBuBKrgKg9oAE8gkCbLeUhEoEQKSUDZDLeWYRKIl8MEDRmHwfyBrBG6Amyu4+kDxxMoB3jhwgYu7TVAsVkFcWCs4CTBEoF4RctKeOxHIf8IXYpikHikAIf+MNUW94AGSSaoAoFIE3AlOyeWU+p2E5S9yfQZcQILVuQOwZdJNoS9Ls3wA5u2XZTIHECqeJ9kDpSaauRiNVcAY1QhdBzeLBli5WazpkSsBLV25uRaqWRyFawTQzRRIQYirJzq5atkBqLfouwqUxLBepthWb10vrWZY6UOAeyKCCtDV625mm9gmUC4Wc3VLJMMIE1BsA2FW9JraVlQB7n3c9oMKhCLEvIM1zBPZ25/umNQ1tVEC2G+fFCC8g398O2hNQuQlVu752DBfA+q0ptnqO5JFmeuIuo9DY7KjY71UxdJV4EntifPWorW++R/dC4t7V3DlIB5cHx2bc7eb3yvX//QNFp+bHDT/+Aw==);lineShape=1;fontSize=16;" parent="WIyWlLk6GJQsqaUBKTNV-1" vertex="1">
          <mxGeometry x="337.48081667497786" y="312.03296213713884" width="4.247763429196063" height="4.241123833052039" as="geometry" />
        </mxCell>
        <mxCell id="PUCg0PAcKh2eB5227f6h-1" style="edgeStyle=none;curved=1;rounded=0;orthogonalLoop=1;jettySize=auto;html=1;exitX=0.75;exitY=0;exitDx=0;exitDy=0;entryX=0.742;entryY=1.001;entryDx=0;entryDy=0;entryPerimeter=0;fontSize=12;startSize=8;endSize=8;endArrow=none;endFill=0;" edge="1" parent="WIyWlLk6GJQsqaUBKTNV-1" source="vp01Dy_aqY1F1hco7SnQ-25" target="vp01Dy_aqY1F1hco7SnQ-5">
          <mxGeometry relative="1" as="geometry" />
        </mxCell>
        <mxCell id="PUCg0PAcKh2eB5227f6h-2" style="edgeStyle=none;curved=1;rounded=0;orthogonalLoop=1;jettySize=auto;html=1;exitX=0.25;exitY=0;exitDx=0;exitDy=0;entryX=0.226;entryY=1.001;entryDx=0;entryDy=0;entryPerimeter=0;fontSize=12;startSize=8;endSize=8;endArrow=none;endFill=0;" edge="1" parent="WIyWlLk6GJQsqaUBKTNV-1" source="vp01Dy_aqY1F1hco7SnQ-25" target="vp01Dy_aqY1F1hco7SnQ-5">
          <mxGeometry relative="1" as="geometry" />
        </mxCell>
        <mxCell id="PUCg0PAcKh2eB5227f6h-4" value="Create" style="text;html=1;align=center;verticalAlign=middle;resizable=0;points=[];autosize=1;strokeColor=none;fillColor=none;fontSize=16;" vertex="1" parent="WIyWlLk6GJQsqaUBKTNV-1">
          <mxGeometry x="560" y="218" width="70" height="30" as="geometry" />
        </mxCell>
        <mxCell id="PUCg0PAcKh2eB5227f6h-5" value="Join" style="text;html=1;align=center;verticalAlign=middle;resizable=0;points=[];autosize=1;strokeColor=none;fillColor=none;fontSize=16;" vertex="1" parent="WIyWlLk6GJQsqaUBKTNV-1">
          <mxGeometry x="483" y="228" width="50" height="30" as="geometry" />
        </mxCell>
        <mxCell id="PUCg0PAcKh2eB5227f6h-6" value="1,*" style="text;html=1;align=center;verticalAlign=middle;resizable=0;points=[];autosize=1;strokeColor=none;fillColor=none;fontSize=16;" vertex="1" parent="WIyWlLk6GJQsqaUBKTNV-1">
          <mxGeometry x="589" y="331" width="40" height="30" as="geometry" />
        </mxCell>
        <mxCell id="PUCg0PAcKh2eB5227f6h-7" value="1,*" style="text;html=1;align=center;verticalAlign=middle;resizable=0;points=[];autosize=1;strokeColor=none;fillColor=none;fontSize=16;" vertex="1" parent="WIyWlLk6GJQsqaUBKTNV-1">
          <mxGeometry x="470" y="325" width="40" height="30" as="geometry" />
        </mxCell>
        <mxCell id="PUCg0PAcKh2eB5227f6h-8" value="1,1" style="text;html=1;align=center;verticalAlign=middle;resizable=0;points=[];autosize=1;strokeColor=none;fillColor=none;fontSize=16;" vertex="1" parent="WIyWlLk6GJQsqaUBKTNV-1">
          <mxGeometry x="89" y="362" width="50" height="30" as="geometry" />
        </mxCell>
      </root>
    </mxGraphModel>
  </diagram>
</mxfile>
